<svg width="2260" height="5000" viewBox="0 0 2260 5000" fill="none" xmlns="http://www.w3.org/2000/svg">
<g clip-path="url(#clip0_22_2)">
<path d="M868.95 4304.4L857.04 4309.1L869.49 4304.2L868.95 4304.4Z" fill="#7C4848"/>
<path d="M868.86 3918.1H868.87L867.93 3920.9L868.86 3918.1Z" fill="#7C4848"/>
<path d="M665.72 4419.5L683.65 4405.7L669.01 4417L665.72 4419.5Z" fill="#7C4848"/>
<path d="M1609.7 3869.8L1605.2 3856.8L1609.7 3869.8Z" fill="#7C4848"/>
<path d="M677.29 3791L675.87 3795.2L675.54 3796.1L677.29 3791Z" fill="#7C4848"/>
<path d="M1358.5 3809.1L1358.2 3808.1L1358.4 3808.9L1358.5 3809.1Z" fill="#7C4848"/>
<path d="M1346.6 3765.2L1346.5 3765L1346.6 3765.2Z" fill="#7C4848"/>
<path d="M939.77 3660.8L939.76 3660.9L939.77 3660.8Z" fill="#7C4848"/>
<path d="M917.84 3748.5L920.23 3739.3L918.38 3746.5L924.89 3721L917.84 3748.5Z" fill="#7C4848"/>
<path d="M886.25 3862.3L885.27 3865.5L885.06 3866.2L886.25 3862.3Z" fill="#7C4848"/>
<path d="M1501.7 3539L1499.1 3530.2L1506.1 3553.3L1501.7 3539Z" fill="#7C4848"/>
<path d="M1306.9 3604L1306.6 3602.5L1306.8 3603.6L1306.9 3604Z" fill="#7C4848"/>
<path d="M1278.1 3471.3L1277.3 3467.4L1278.1 3471.3Z" fill="#7C4848"/>
<path d="M1260.8 3384.5L1261.8 3389.6L1260.9 3384.8L1260.8 3384.5Z" fill="#7C4848"/>
<path d="M932.91 3689.1L931.9 3693L931.88 3693.1L932.91 3689.1Z" fill="#7C4848"/>
<path d="M1451.3 3368.1L1450.6 3365.8L1454.5 3379.5L1451.3 3368.1Z" fill="#7C4848"/>
<path d="M1245.8 3302.7L1245.5 3300.9L1245.8 3302.7Z" fill="#7C4848"/>
<path d="M1244.8 3296.5L1242.8 3285L1242.7 3284.6L1244.8 3296.5Z" fill="#7C4848"/>
<path d="M1272.2 3442.5L1273.2 3447.4L1272.1 3441.9L1273 3446.2L1271.2 3437.2L1272.1 3441.8L1272.8 3445.4L1272.2 3442.5Z" fill="#7C4848"/>
<path d="M1336.9 3727.9L1336.7 3727.1L1336.9 3727.9Z" fill="#7C4848"/>
<path d="M664.45 3828.8L664.27 3829.3L662.03 3836L664.45 3828.8Z" fill="#7C4848"/>
<path d="M1339.9 3739.5L1339.8 3739.4V3739.2L1339.9 3739.5Z" fill="#7C4848"/>
<path d="M1005 3353.6L1004.5 3356.5L1004.2 3358.2L1005 3353.6Z" fill="#7C4848"/>
<path d="M664.27 3829.3L670.62 3810.7L664.64 3828.3L664.27 3829.3Z" fill="#7C4848"/>
<path d="M1222.4 2873.8L1221.9 2870.6L1222.5 2874L1222.4 2873.8Z" fill="#7C4848"/>
<path d="M1045.2 2825.6L1046.5 2817.4L1046 2820.7L1045.2 2825.6Z" fill="#7C4848"/>
<path d="M1325.1 2709.7L1325.8 2714.5V2714.4V2714.6V2714.5V2714.6L1325.1 2709.7Z" fill="#7C4848"/>
<path d="M719.72 3662.1L720.91 3658.3L720.84 3658.6L719.72 3662.1Z" fill="#7C4848"/>
<path d="M895.83 3829.2L895.41 3830.7L891.79 3843.4L895.83 3829.2Z" fill="#7C4848"/>
<path d="M2210.9 4950.9V4912.54H2200.98L1750.97 4102.03L1751.41 4094.81L1752.61 4086.46L1754.97 4075.81L1759.01 4062.3L1765.19 4046.17L1771.85 4031.93L1778.74 4019.72L1782.51 4014.05L1783.14 4012.96L1784.71 4009.38L1785.22 4005.5L1785.05 4003.3L1784.48 4000.94L1784.29 4000.25L1782.13 3996.64L1781.74 3995.92L1778.96 3993.32L1777.5 3992.46L1774.36 3991.34L1770.61 3989.82L1769.77 3985.48L1767.99 3981.05L1766.77 3979.14L1764.52 3976.92L1763.92 3976.23L1761.45 3974.09L1757.55 3972.33L1755.28 3971.95L1751.84 3971.06L1751.62 3882.54L1755.2 3882.26L1756.8 3881.56L1757.76 3880.81L1758.72 3879.63L1759.45 3877.84L1759.62 3876.79L1759.42 3874.39L1759.05 3873.37L1758.25 3872.07L1756.58 3870.73L1752.05 3869.8L506.95 3869.92L533.67 3869.79L507.18 3869.82L503.2 3870.97L502.74 3871.17L501.31 3872.7L500.85 3873.56L500.34 3875.22L500.33 3877L500.8 3878.04L500.4 3875.72L500.97 3878.97L501.73 3880.05L502.74 3881.18L504.5 3882.18L505.02 3882.27L508.13 3882.56L507.26 3971.26L502.78 3972.25L502.13 3972.44L498.36 3974.71L498.35 3974.72L496.76 3975.46L494.12 3978.28L492.13 3980.89L492.03 3981.05L490.6 3984.72L489.88 3986.81L489.24 3990.11L486.33 3991.07L484.44 3991.74L481.46 3993.54L478.7 3995.48L476.81 3998.01L476.08 3999.61L475.02 4002.92L474.93 4003.46L474.78 4006.37L475.31 4009.44L477.21 4013.29L477.52 4014.05L481.28 4019.72L488.17 4031.93L494.83 4046.17L501.01 4062.3L505.06 4075.81L507.41 4086.46L508.61 4094.81L509.08 4102.53L508.26 4104.03L59.0402 4912.54H49.1202V4950.9H-0.00976562V5000.03H491.3V4950.9H442.17L442.53 4910.35L448.64 4873.06L459.31 4825.44L472.11 4782.79L487.43 4741.25L501.2 4710.26L505.73 4700.8L511.66 4688.49L522.33 4668.22L364.77 4912.54L537.31 4642.18L532.11 4651.08L532.09 4651.11L527.24 4659.41L547.71 4625.74L547.78 4625.63L547.81 4625.59L559.57 4608.02L562.91 4603.22L578.76 4581.96L601.59 4553.25L615.47 4537.43L615.56 4537.34L630.13 4521.74L644.22 4507.55L664.28 4488.76L699.18 4459L695.14 4462.27L698.97 4459.16L699.18 4459L732.42 4434.22L748.76 4423.18L750 4422.37L754.97 4419.13L770.89 4409.21L786.39 4400.11L805.71 4389.51L829.1 4377.61L848.23 4368.78L861.76 4363.02L849.58 4368.15L870.08 4359.49L870.71 4359.25L868.84 4360.04L874.81 4357.67L887.4 4352.81L890.24 4351.71L911.71 4344.19L914.07 4343.49L914.15 4343.47L955.52 4331.27L975.74 4326.32L996.24 4321.98L1003.13 4320.72L1016.77 4318.29L1038.08 4315.12L1045.98 4314.11L1063.49 4312.14L1058.57 4312.7L1063.5 4312.21L1067.01 4311.86L1079.95 4310.82L1080.41 4310.79L1087.84 4310.26L1087.98 4310.25L1108.99 4309.28L1130.01 4308.95L1151.03 4309.28L1179.92 4310.81L1193.01 4311.86L1196.52 4312.21L1201.45 4312.7L1196.53 4312.14L1214.04 4314.11L1221.94 4315.12L1228.02 4316.02L1243.15 4318.28L1243.25 4318.29L1263.87 4322.01L1282.22 4325.88L1282.35 4325.91L1282.37 4325.92L1304.5 4331.27L1304.57 4331.29L1322.35 4336.21L1304.82 4331.35L1322.38 4336.21H1322.35L1324.99 4336.95L1330.4 4338.58L1331.2 4338.82L1343.99 4342.83L1344.1 4342.87L1344.5 4343L1344.4 4342.96L1348.31 4344.19L1368.27 4351.17L1366.43 4350.55L1386.44 4358.16L1391.07 4360L1411.78 4368.77L1411.79 4368.78L1430.92 4377.61L1455.1 4389.91L1468.26 4397.03L1474.62 4400.68L1489.14 4409.21L1475.14 4400.97L1486.62 4407.67L1489.14 4409.21L1493.42 4411.82L1504.43 4418.73L1504.48 4418.77L1504.5 4418.78L1507.98 4420.96L1528.43 4434.83L1504.5 4418.78L1533.53 4438.63L1560.85 4459L1560.99 4459.11L1564.87 4462.26L1561.07 4459.19L1595.74 4488.76L1610.55 4502.58L1616.03 4507.78L1622.68 4514.46L1629.88 4521.72L1644.36 4537.23L1659.39 4554.43L1659.48 4554.54L1659.56 4554.63L1678.71 4578.53L1685.17 4587.19L1697.11 4603.22L1700.73 4608.42L1712.05 4625.33L1712.07 4625.36L1733.95 4661.33L1738.69 4670.1L1748.36 4688.48L1748.37 4688.49L1749.47 4690.59L1752.58 4696.76L1748.37 4688.49L1758.83 4710.26L1758.89 4710.39L1772.59 4741.25L1763.73 4720.48L1763.89 4720.82L1763.95 4720.96L1772.59 4741.25L1788.19 4783.55L1788.21 4783.6L1788.22 4783.62L1788.25 4783.7L1788.26 4783.75L1800.71 4825.44L1811.75 4874.71L1811.76 4874.75L1813.05 4881.91L1812.46 4878.15L1814.61 4890.57L1813.05 4881.91L1817.71 4911.62L1817.85 4950.9H1768.72V5000.03H2260.03V4950.9H2210.9L2210.9 4950.9ZM1751.95 4045.7L1752.34 4039.34L1751.93 4046.18L1751.95 4045.7ZM486.15 4019.6L486.03 4019.59L487.37 4019.61L486.15 4019.6ZM472.37 4781.85L473.4 4778.94L472.22 4782.35L472.37 4781.85ZM445.39 4890.57L447.54 4878.15L442.53 4908.12L445.39 4890.57ZM1921.69 4481.52L2014.4 4648.08L1870.2 4564.78L1891.47 4530.39L1917.48 4488.33L1921.69 4481.52ZM2023.18 4684.49L2004.53 4714.78L1971.73 4768.03L1827.32 4684.49H2023.18ZM1873.36 4522.31L1869.25 4528.96L1853.98 4553.65L1848.7 4552.36L1835.06 4544.48L1708.9 4471.61H1904.72L1873.36 4522.31ZM1784.9 4371.04L1751.87 4351.7L1794.86 4282.37L1803.58 4270.7L1803.92 4271.1L1806.02 4274L1894.18 4433.85L1871.49 4421.06L1824.65 4394L1894.18 4433.85L1784.9 4371.04ZM1782.41 4264.96L1781.87 4265.83L1781.38 4266.62V4266.63L1781.35 4266.67V4266.68H1781.34V4266.69L1774.4 4277.92L1768.7 4287.12L1762.37 4297.37L1736.42 4339.32L1727.6 4337.94H1727.59L1677.41 4308.95L1667.84 4303.43L1644.62 4290.01L1643.09 4289.13L1640.25 4287.49L1639.75 4287.2L1639.07 4286.8L1639.02 4286.78L1638.96 4286.74L1638.81 4286.66L1638.72 4286.6H1638.71L1638.7 4286.59L1638.63 4286.56L1638.62 4286.55L1638.58 4286.53L1638.57 4286.52L1638.44 4286.45L1638.32 4286.38L1636.29 4285.2L1635.72 4284.87L1633.88 4283.81L1631.45 4282.41L1630.26 4281.72L1628.6 4280.76L1628.59 4280.75H1628.58L1627.92 4280.37L1627.87 4280.34L1627.83 4280.32L1627.66 4280.21L1626.73 4279.68L1625.24 4278.82L1625.06 4278.72L1623.4 4277.75L1621.3 4276.54L1621.21 4276.49L1620.75 4276.22L1620.69 4276.19L1620.23 4275.92L1619.4 4275.44L1619.31 4275.39L1612.23 4271.31L1612.15 4271.26L1609.02 4269.45L1606.68 4268.1L1605.95 4267.67H1605.93L1605.86 4267.62L1605.83 4267.61L1605.48 4267.41L1605.28 4267.29L1605.08 4267.18L1602.85 4265.89L1601.4 4265.05L1600.32 4264.42L1599.78 4264.11L1599.75 4264.1L1599.72 4264.08L1599.69 4264.06L1599.65 4264.04L1596.06 4261.97L1594.55 4261.09L1593.3 4260.37L1784.96 4260.83L1782.41 4264.96ZM1618.98 4113.48V4145.18L1587.28 4113.48H1618.98ZM1598.75 3926.78V3925.14L1601.15 3926.78H1598.75ZM1614.87 4168.94L1583.21 4200.61V4137.21L1614.87 4168.94ZM1618.98 4192.63V4224.33H1587.28L1618.98 4192.63ZM1638.63 4145.18V4113.48H1670.33L1638.63 4145.18ZM1674.4 4137.21V4200.61L1642.73 4168.94L1666.36 4145.25L1674.4 4137.21ZM1670.33 4224.33H1638.63V4192.63L1670.33 4224.33ZM1715.49 4206.96L1729.82 4192.63V4224.33H1698.12L1715.49 4206.96ZM1694.05 4200.61V4137.21L1725.72 4168.94L1694.05 4200.61ZM1698.12 4113.48H1717.01L1729.76 4136.51L1729.82 4145.18L1698.12 4113.48ZM1726.33 3971H1681.76L1674.82 3951.54V3882.57H1726.33V3971ZM1775.31 4218.52L1778.54 4224.33H1749.48V4192.63L1775.31 4218.52ZM1750.91 4101.96L1751.03 4079.06L1751 4080.67L1750.9 4094.81L1750.98 4081.85L1750.9 4086.46L1751.05 4071.45L1750.98 4081.85L1751 4080.67L1751.08 4070.48L1751.03 4079.06L1751.31 4063.76L1750.91 4101.96ZM1446.59 3882.57H1464.86L1751.6 3882.5L1614.1 3882.57L1627.47 3920.94L1598.75 3900.8V3882.57L1751.6 3882.5L1574.18 3882.57V3883.58L1572.74 3882.57H1536.33L1555.55 3895.68L1574.18 3908.39V3926.78H1522.67V3882.57H1536.33L1751.6 3882.5L1498.1 3882.57V3926.78H1454.11L1490.23 3882.57H1464.86L1446.59 3904.92L1446.59 3882.57ZM1542.12 4206.97L1559.48 4224.33H1551.78L1542.12 4206.97ZM1546.1 4313.46L1544.55 4313.84L1545.9 4313.5L1546.1 4313.46ZM1531.88 4168.94L1563.55 4137.21V4200.61L1531.88 4168.94ZM1531.13 4187.22L1508.13 4145.63L1541.84 4206.47L1531.13 4187.22ZM1499.48 4201.28L1512.31 4224.33H1476.43L1499.48 4201.28ZM1474.23 4198.74L1472.45 4154.85L1481.47 4168.91L1489.55 4183.42L1474.23 4198.74ZM1489.99 4113.48H1508.13L1507.29 4144.12L1504.73 4139.77L1489.99 4113.48ZM1527.78 4145.18V4113.48H1559.48L1527.78 4145.18ZM1421 4168.91L1452.71 4137.21V4200.61L1421 4168.91ZM1448.64 4224.33H1416.93V4192.63L1448.64 4224.33ZM1416.93 4145.18V4113.48H1448.64L1416.93 4145.18ZM1415.5 3882.57L1417.46 3889.79H1417.45L1415.14 3882.57L1417.42 3889.67L1415.5 3882.57ZM1380.79 3885.48L1380.96 3886.05L1380.54 3884.7L1380.79 3885.48ZM1378.99 3882.57L1383.85 3895.36L1383.86 3895.4L1383.95 3895.67V3895.68L1383.97 3895.74L1390.59 3916.36L1391.08 3917.82L1384.01 3895.72L1383.98 3895.64L1382.52 3891.07L1381.88 3889.01L1382.47 3890.85L1391.08 3917.82L1400.67 3946.18L1409.66 3971H1378.1L1378.99 3882.57ZM1397.28 4113.48V4145.18L1365.58 4113.48H1397.28ZM1361.51 4137.21L1393.21 4168.91L1361.51 4200.61V4137.21ZM1397.28 4192.63V4224.33H1365.58L1397.28 4192.63ZM1299.49 3882.57H1345.95V3971H1299.49V3882.57ZM1310.16 4168.91L1341.86 4137.21V4200.61L1310.16 4168.91ZM1337.79 4224.33H1306.09V4192.63L1337.79 4224.33ZM1306.09 4145.18V4113.48H1337.79L1306.09 4145.18ZM1286.44 4192.63V4224.33H1254.73L1286.44 4192.63ZM1250.66 4200.61V4137.21L1282.37 4168.91L1250.66 4200.61ZM1254.73 4113.48H1286.44V4145.18L1254.73 4113.48ZM1220.88 3882.57H1269.87V3971H1220.88V3882.57ZM1195.24 4113.48H1226.94L1195.24 4145.18V4113.48ZM1231.01 4137.21V4200.61L1199.31 4168.91L1231.01 4137.21ZM1195.24 4192.63L1226.94 4224.33H1195.24V4192.63ZM1142.29 3882.57H1193.8V3971H1142.29V3882.57ZM1175.59 4113.48V4145.18L1143.89 4113.48H1175.59ZM1139.82 4137.21L1171.52 4168.91L1139.82 4200.61V4137.21ZM1175.59 4192.63V4224.33H1143.89L1175.59 4192.63ZM1088.46 4168.91L1120.16 4137.21V4200.61L1088.46 4168.91ZM1116.09 4224.33H1084.39V4192.63L1116.09 4224.33ZM1084.39 4145.18V4113.48H1116.09L1084.39 4145.18ZM1066.18 3882.57H1117.7V3971H1066.18V3882.57ZM1064.74 4192.63V4224.33H1033.04L1064.74 4192.63ZM1028.97 4200.61V4137.21L1060.67 4168.91L1028.97 4200.61ZM1033.04 4113.48H1064.74V4145.18L1033.04 4113.48ZM990.11 3882.57H1039.1V3971H990.11V3882.57ZM973.55 4113.48H1005.25L973.55 4145.18V4113.48ZM1009.32 4137.21V4200.61L977.62 4168.91L1009.32 4137.21ZM973.55 4192.63L1005.25 4224.33H973.55V4192.63ZM914.03 3882.57H960.49V3971H914.03V3882.57ZM953.89 4192.63V4224.33H922.19L953.89 4192.63ZM918.12 4200.61V4137.21L949.82 4168.91L918.12 4200.61ZM922.19 4113.48H953.89V4145.18L922.19 4113.48ZM866.77 4168.91L898.47 4137.21V4200.61L866.77 4168.91ZM894.4 4224.33H862.7V4192.63L894.4 4224.33ZM862.7 4145.18V4113.48H894.4L862.7 4145.18ZM863.39 3934.04L874.46 3900.44L878.27 3888.46L878.1 3889.02L878.25 3888.55L878.28 3888.45L878.41 3888.05L878.7 3887.11L880.1 3882.57H880.99L881.88 3971H850.32L863.39 3934.04ZM843.05 4192.63V4224.33H811.35L843.05 4192.63ZM807.28 4200.61V4137.21L838.98 4168.91L807.28 4200.61ZM811.35 4113.48H843.05V4145.18L811.35 4113.48ZM838.7 3901.54L841.67 3892.42L838.5 3902.23L838.7 3901.54ZM813.39 3882.57V3904.92L795.12 3882.57H813.39ZM761.88 3882.57H769.75L805.87 3926.78H761.88L761.88 3882.57ZM799.36 4256.06L763.84 4258.89L763.94 4258.87L799.36 4256.06ZM770.36 4268.68L764.17 4259.39L768.93 4266.51L770.36 4268.68ZM787.62 4200.61L770.43 4183.42L786.42 4155.78L787.62 4200.61ZM769.99 4113.48L754.91 4140.39L754.8 4140.58L752.69 4144.15L769.99 4113.48L752.69 4144.13L751.85 4113.48L769.99 4113.48ZM760.5 4201.28L783.55 4224.33H747.67L760.5 4201.28ZM685.8 3882.57H687.24L685.8 3883.58V3882.57ZM685.8 3908.39L723.65 3882.57H737.31V3926.78H685.8V3908.39ZM727.17 4261.63L693.81 4321.79L658.11 4385.84L736.53 4244.35L728.93 4258.68L727.01 4262.04L736.53 4244.35L727.17 4261.63ZM656.75 4316.83L667.68 4296.86L661.02 4309.17L656.75 4316.83ZM728.1 4168.94L696.43 4200.61V4137.21L728.1 4168.94ZM700.5 4113.48H732.2V4145.18L700.5 4113.48ZM717.86 4206.97L708.2 4224.33H700.5L717.86 4206.97ZM676.42 4279.82L587.09 4442.07L573.37 4419.87L573.22 4419.62L572.99 4419.25L550.08 4382.21L536.32 4359.94L535.67 4358.9L551.76 4349.45L564.27 4342.22L565.55 4341.48L572.49 4337.47L573.06 4337.15L598.9 4322.22L596.81 4323.44L590.96 4326.83L620.57 4309.73L620.66 4309.68L623.52 4308.03L623.63 4307.96L623.99 4307.76L626.37 4306.39L668.34 4282.25L676.96 4277.94L676.42 4279.82ZM435.68 4393.79L437.06 4393.01L401.85 4413.34L435.68 4393.79ZM409.03 4431.89L443.61 4411.92L452.41 4406.83L518.57 4368.62L547.26 4415L550.63 4420.44L551.49 4421.84L558.61 4433.35L570.11 4451.96H374.29L409.03 4431.89ZM641.01 4224.33V4192.63L672.71 4224.33H641.01ZM676.78 4200.61L645.11 4168.94L676.78 4137.21V4200.61ZM641.01 4145.18V4113.48H672.71L641.01 4145.18ZM661.24 3926.78H658.83L661.24 3925.14V3926.78ZM645.9 3882.57L645.26 3884.44L644.31 3887.16L643.7 3888.95L645.92 3882.57H661.24V3900.8L632.51 3920.94L645.9 3882.57ZM533.65 3971V3882.57H585.16V3951.54L578.22 3971H661.24L509.36 3971.02L533.65 3971ZM621.35 4192.63V4224.33H589.65L621.35 4192.63ZM585.58 4200.61V4137.21L617.25 4168.94L585.58 4200.61ZM589.65 4113.48H621.35V4145.18L589.65 4113.48ZM534.26 4168.94L552.19 4150.95L562.76 4140.37L565.71 4137.42L565.93 4137.21V4200.61L534.26 4168.94ZM561.86 4224.33H530.16V4192.63L561.86 4224.33ZM530.16 4145.18L530.22 4136.51L542.97 4113.48H561.86L530.16 4145.18ZM508.23 4056.97L508.4 4060.72L509.08 4102.53L508.49 4062.71L509.08 4094.81L508.64 4066.13L509.08 4086.46L509.08 4102.53L508.23 4056.97ZM484.68 4218.52L510.51 4192.63V4224.33H481.44L484.68 4218.52ZM558.78 4260.17H650.13L666.68 4260.37L663.62 4262.14L663.56 4262.17L661.79 4263.19L660.24 4264.09L658.48 4265.11L658.18 4265.28L657.93 4265.43L657.09 4265.91L651.94 4268.88L649.6 4270.24L649.56 4270.26L649.15 4270.5L647.57 4271.41L642.87 4274.13L641.83 4274.72L641.75 4274.77L641.57 4274.87L640.11 4275.72L601.21 4298.18L600.75 4298.45L578.5 4311.3L575.36 4313.12L573.73 4314.06L573.21 4314.36L573.19 4314.37L571.85 4315.14L568.52 4317.07L567.3 4317.77L529.94 4339.35L524.7 4341.17L510.56 4318.3L507.95 4314.08L504.72 4308.86L504.41 4308.35L502.35 4305.03L501.34 4303.39L501.31 4303.35L494.11 4291.7L494.09 4291.68L493.94 4291.42L493.8 4291.2L493.48 4290.67L491.88 4288.1L491.51 4287.5L491.27 4287.11L489.54 4284.31L488.86 4283.21L488.83 4283.16L488 4281.82L487.88 4281.63L487.78 4281.47L487.52 4281.04L486.09 4278.73L485.28 4277.42L484.64 4276.39L482.36 4272.7L479.14 4267.5L478.9 4267.11L478.67 4266.73L476.75 4263.63L476.34 4262.97L476.25 4262.83L475.55 4261.69L475.38 4261.41L475.19 4261.1L558.78 4260.17ZM453.28 4274.93L455.68 4271.63L457.37 4270.36L459.16 4272.7L465.63 4283.02L465.75 4283.2L474.36 4297.14L475.09 4298.31L475.21 4298.5L476.17 4300.05L477.58 4302.34L477.84 4302.75L478.1 4303.17L478.37 4303.61L478.47 4303.77L478.95 4304.55L479.08 4304.75L479.25 4305.04L479.3 4305.11L479.32 4305.16L479.34 4305.18L479.35 4305.2L479.36 4305.21L479.37 4305.23L479.65 4305.68L479.69 4305.75L479.8 4305.93L484.61 4313.7L484.86 4314.11L486.07 4316.07L486.08 4316.08L486.13 4316.17L486.22 4316.31L486.31 4316.45L493.78 4328.53L494.36 4329.47L494.44 4329.6L494.75 4330.1L494.76 4330.12L494.79 4330.16L494.84 4330.25L501.69 4341.32L502.07 4341.93L508.11 4351.7L497.37 4358.11L366.04 4433.39L453.28 4274.93ZM551.08 4471.61L496.54 4503.12L463.59 4522.15L476.54 4514.66L411.28 4552.36L406.01 4553.65L355.27 4471.61L551.08 4471.61ZM338.29 4481.52L389.78 4564.78L245.58 4648.08L338.29 4481.52ZM432.66 4684.49L404.42 4700.83L380.4 4714.73L288.25 4768.03L236.8 4684.49H432.66ZM219.81 4694.37L271.23 4777.87L126.83 4861.41L219.81 4694.37ZM137.14 4878.15L281.54 4794.61L332.99 4878.15H137.14ZM350.01 4868.3L311.03 4805.01L300.18 4783.83L442.92 4701.26L350.01 4868.3ZM255.84 4664.84L295.08 4642.18L400.12 4581.5L408.96 4595.79L450.59 4663.1L255.84 4664.84ZM468.67 4654.98H468.66L456.01 4634.51L449.05 4623.26L442.36 4612.44L417.15 4571.67L534.67 4503.79L561.12 4488.56L555.86 4498.22L468.67 4654.98ZM699.39 4394.22L699.26 4394.32L690.41 4400.68L666.04 4419.31L665.81 4419.48L664.62 4420.38L665.69 4419.53L658.19 4410.07L656.34 4407.1L655.82 4405.59L654.79 4401.25L654.63 4396.82L654.95 4393.89L655.96 4390.34L657.32 4387.49L661.5 4382.38L663.3 4380.69L663.97 4380.21L666.6 4378.78L668.69 4377.83L671.67 4376.98L672.41 4376.87L676.22 4376.68L679.8 4376.81L685.21 4378.43L686.74 4379.16L686.75 4379.17L692.43 4383.41L699.42 4394.2L699.39 4394.22ZM716.88 4382.21L716.45 4382.48L699.77 4393.95L716.45 4382.47V4382.48L717.86 4381.56L691.84 4344.85L691.35 4343.51L689.76 4336.06V4336.05L689.74 4333.62L689.78 4333.31L690.82 4328.11L691.23 4326.78L692.25 4324.78L692.94 4323.45L692.28 4324.74L695.07 4320.76L700.82 4316L702.01 4315.44L711.41 4313.3L711.52 4313.29L711.66 4313.3L715.49 4313.92L721.05 4315.74L725.41 4318.66L727.88 4320.76L735.96 4332.25L753.63 4358.89L738.06 4368.62L742.52 4365.94L717.81 4381.63L716.88 4382.21ZM744.58 4364.91L753.34 4359.43L753.52 4359.32L753.81 4359.15L744.58 4364.91ZM753.96 4359.03L771.11 4349.32V4349.33L771.41 4349.18L753.96 4359.03ZM810.07 4329.41L784.7 4342.06L774.31 4347.63L774.21 4347.68L774.336 4347.61L772.801 4348.42L764.36 4338.62L732.64 4291.11L726.55 4281.79L726.46 4281.62L726.45 4281.6V4281.58L724.52 4273.55L724.65 4270.91L725.72 4265.25L726.46 4263.42L730.63 4257.11L732.33 4255.54L734.82 4253.82L739.67 4251.54L742.34 4250.92L749.58 4250.61L750.8 4250.91L755.52 4252.49L759.18 4254.85L759.23 4254.89H759.24L762.64 4257.79L763.24 4258.31L773.93 4274.13L777.49 4279.55L763.24 4258.31L762.65 4257.81L810.19 4329.35L810.07 4329.41ZM800.3 4277.49V4277.48L800.2 4277.34L799.49 4276.25L829.45 4320.54L800.3 4277.49ZM833.55 4318.88L832.77 4319.19L830.32 4320.19L829.49 4320.52L851.79 4311.13L830.98 4319.87L803.4 4281.46L798.88 4274.48L797.13 4267.59V4266.41L797.17 4265.8L797.73 4261.27L798.8 4257.85L800.24 4255.04L805.67 4248.74L806.57 4248.16L805.81 4248.58L806.5 4248.18L810.52 4245.98L811.08 4245.67L813.09 4245.06L816.57 4244.32L822.99 4244.74L824.18 4244.99L827.61 4246.27L828.94 4246.88L826.85 4245.55L831.68 4248.6L835.82 4252.14L836.9 4253.34L869.8 4304.14L870.68 4303.81L833.55 4318.88ZM836.94 4253.37L842.31 4261.36L842.44 4261.56L843.16 4262.69L837.37 4254.03L836.94 4253.37ZM891.05 4296.6L891.737 4296.37L891.108 4296.58L891.05 4296.6ZM892.04 4296.32L893.29 4295.92L891.161 4296.57L914.437 4289.11L895.269 4295.18L892.519 4296.11L876.33 4276.06L890.87 4296.66L876.77 4276.74L876.33 4276.06L875.87 4275.35V4275.34L873.89 4267.59L873.9 4266.11L874.5 4261.27L875.04 4259.56L875.66 4257.68L877.01 4255.04L879.83 4251.23L880.66 4250.44L885.11 4247.09L886.53 4246.43L896.43 4244.42L898.77 4244.72L904.34 4246.08L904.59 4246.2L906.95 4247.41L910.64 4250.23L911.37 4250.85L911.88 4251.35L920.09 4263.23L920.1 4263.25L932.51 4283.89L892.04 4296.32ZM977.31 4273.07L961.26 4276.64L954.07 4278.32L953.1 4276.72L952.29 4275.07L951.8 4273.83L951.5 4272.99L951.19 4271.96L950.99 4271.2L950.8 4270.27L950.64 4269.42L950.52 4268.44L950.43 4267.49L950.41 4266.64L950.4 4265.53V4265.47L950.45 4264.57L950.53 4263.63L950.66 4262.71L950.82 4261.77L951.02 4260.87L951.05 4260.77L951.27 4259.93L951.57 4258.99L951.83 4258.26L952.2 4257.35L952.57 4256.53L953.01 4255.67L953.41 4254.94L953.95 4254.08L954.43 4253.35L955.5 4251.95L956.64 4250.68L958.06 4249.34L958.16 4249.26L959.48 4248.22L959.49 4248.21L960.78 4247.34L960.94 4247.24L962.11 4246.57L962.43 4246.41L963.71 4245.8L963.94 4245.71L965.33 4245.18L964.39 4245.52L965.27 4245.19L965.92 4244.99L967.17 4244.64L967.46 4244.57L968.4 4244.38L976.68 4244.4L977.48 4244.56L977.78 4244.63L978.95 4244.95L979.21 4245.03L980.15 4245.36L980.42 4245.46L981.73 4246.01L983.23 4246.77L984.43 4247.49L985.82 4248.46L986.36 4248.88L987.32 4249.71L988.21 4250.57L988.62 4250.98L989.49 4251.98L989.82 4252.37L1000.7 4268.55L977.31 4273.07ZM1023.42 4263.6L1023.43 4263.61L1022.3 4263.7L1023.42 4263.6L1022.55 4262.69L1023.87 4257.95L1025.38 4255.27L1028.22 4251.12L1030.27 4249.35L1032.94 4247.43L1034.46 4246.69L1036.27 4245.82L1034.43 4246.35L1036.76 4245.67L1036.27 4245.82L1034.54 4246.66L1037.11 4245.58L1040.44 4244.61L1045.4 4244.55L1048.59 4244.84L1056.3 4248L1057.16 4248.51L1060.73 4251.71L1061.47 4252.41L1065.42 4257.86L1065.51 4257.99L1066.89 4259.93L1023.42 4263.6ZM1193.09 4259.93L1193.12 4259.89L1194.85 4257.56L1199.86 4251.16L1200.68 4250.43L1207.12 4246.24L1207.15 4246.22L1208.03 4245.84L1211.93 4244.67L1219.41 4244.62L1223.02 4245.83L1227.88 4247.88L1232.11 4251.54L1236.24 4258.2L1236.7 4259.68L1237.51 4262.97L1235.76 4263.54L1193.09 4259.93ZM1369.52 4351.62L1369.48 4351.6L1369.52 4351.61V4351.62H1369.54L1369.55 4351.63L1369.52 4351.62ZM1384.39 4274.23L1383.78 4275.86L1383.69 4276L1383.21 4276.74L1369.36 4296.3L1383.69 4276L1367.46 4296.11L1340.91 4287.78L1329.73 4284.57L1369.11 4296.66L1366.69 4295.92L1368.5 4296.49L1361.01 4294.19L1327.47 4283.89L1339.88 4263.25L1339.89 4263.23L1347.73 4251.89L1353.19 4247.41L1354.41 4246.72L1357.57 4245.54L1359.55 4244.86L1361.43 4244.42L1366.77 4244.35L1368.14 4244.45L1374.85 4247.05L1377.22 4248.67L1380.46 4251.61L1383.06 4255.22L1384.41 4257.85V4257.86L1385.48 4261.27L1385.91 4264.7L1385.71 4269.05L1384.4 4274.21L1384.39 4274.23ZM1349.1 4250.63L1352.92 4247.27L1351.01 4248.96L1349.1 4250.63ZM1417.59 4315.28L1389.3 4303.81L1390.18 4304.14L1423.7 4252.71L1424.65 4251.71L1424.68 4251.69L1430.02 4247.74L1436.69 4244.66L1436.73 4244.65H1436.76L1444.81 4244.6L1372.94 4244.07L1435.8 4244.64L1365.41 4244.07H1372.94L1374.56 4244.06L1103.29 4244.14L1359.97 4244.07L1289.81 4244.11L1291.11 4244.28L1291.19 4244.3L1292.45 4244.55L1292.75 4244.62L1292.81 4244.64L1294.06 4244.99L1294.65 4245.18L1296.04 4245.71L1296.26 4245.8L1297.55 4246.41L1299.05 4247.24L1299.2 4247.34L1300.5 4248.22H1300.51L1301.92 4249.34L1303.29 4250.63L1304.48 4251.95L1304.85 4252.42L1305.52 4253.31L1305.6 4253.42L1305.98 4254.01L1306.03 4254.08L1306.59 4254.96L1306.95 4255.62L1307.41 4256.53L1307.78 4257.35L1308.15 4258.26L1308.41 4258.98L1308.71 4259.92L1308.96 4260.86L1309.16 4261.77L1309.33 4262.71L1309.45 4263.63L1309.53 4264.58L1309.51 4264.04L1309.58 4265.47V4266.64L1309.55 4267.48L1309.46 4268.44L1309.35 4269.36L1309.24 4270.01L1308.99 4271.2L1308.77 4272.04L1308.49 4272.99L1308.48 4273.01L1308.18 4273.83L1307.71 4275.03L1306.88 4276.72L1305.91 4278.32L1298.72 4276.61L1298.73 4276.64L1305.91 4278.32L1280.86 4272.71L1259.28 4268.55L1269.1 4253.83L1236.52 4258.45V4258.44L1269.1 4253.83L1270.17 4252.36L1271.37 4250.97L1271.77 4250.57L1272.62 4249.75L1273.63 4248.88L1274.16 4248.46L1275.34 4247.63L1275.55 4247.49L1276.74 4246.78L1276.98 4246.65L1278.25 4246.01L1279.84 4245.35L1280.88 4245L1282.2 4244.63L1282.5 4244.56L1283.81 4244.3L1231.66 4250.82L1284.54 4244.18L1284.07 4244.25L1285.16 4244.11L1220.62 4244.62L1280.62 4244.12L1213.64 4244.15L1103.29 4244.14L1100.61 4244.14L985.34 4244.12L1039.36 4244.62L976.14 4244.11L1034.03 4246.48L975.08 4244.11L1031.59 4247.93L974.85 4244.11L1029.55 4249.54L975.45 4244.18L1027.09 4252.09L976.17 4244.3L975.45 4244.18L974.85 4244.11H970.18L968.79 4244.3L968.87 4244.28L970.18 4244.11L816.85 4244.26L819.87 4244.07H901.75L1370.89 4244.04L1364.66 4243.99L1523.25 4243.98L1445.06 4244.6H1444.82L1445.19 4244.65L1450.8 4246.7L1451.76 4247.14L1454.96 4249.34L1457.04 4251.35L1459.85 4255.24L1461.18 4257.85L1462.25 4261.27V4261.29L1462.63 4264.36L1462.17 4270.28L1460.97 4275L1460.75 4275.54L1460.74 4275.56L1459.51 4277.39L1429 4319.87L1430.47 4320.52L1402.97 4309.11L1390.88 4304.42L1417.59 4315.28ZM1450.12 4329.51L1465.91 4337.39L1459.43 4334.02L1450.1 4329.51L1450.09 4329.5L1449.79 4329.35L1487.98 4271.01L1489.49 4268.7L1489.58 4268.56L1489.93 4268.04L1495.43 4259.83L1487.98 4271.01L1495.77 4259.44L1449.79 4329.35L1497.35 4257.78L1498.33 4256.73L1500.02 4255.44L1506.38 4251.8L1508.75 4251.15L1513.04 4250.53L1514.88 4250.49L1521 4251.73L1523.95 4253.07L1527.3 4255.16L1529.12 4256.75L1530.53 4258.16L1533.37 4263.03L1534.26 4265.25L1535.33 4270.91L1535.46 4273.55L1533.92 4279.97L1533.05 4282.38L1495.62 4338.62L1487.18 4348.42L1485.65 4347.61L1475.28 4342.06L1466.35 4337.49L1459.43 4334.02L1475.27 4342.06L1465.91 4337.39L1450.89 4329.91L1450.12 4329.51ZM1514.47 4310.64L1499.05 4333.94L1512.69 4313.28L1495.86 4338.34L1527.34 4291.11L1512.69 4313.28L1514.47 4310.64ZM1488.87 4349.33V4349.32L1506.18 4359.15L1488.87 4349.33ZM1515.23 4364.53L1506.35 4358.89L1506.49 4358.69L1532.13 4320.78L1536.74 4316.99L1538.34 4315.98L1539.31 4315.52L1546.92 4313.51L1547.91 4313.41L1559.2 4316.01L1559.36 4316.09L1560.12 4316.62L1565.19 4321.25L1567.6 4324.91L1566.88 4323.12L1569.46 4329.47L1570.25 4333.62L1570.21 4337.01L1568.4 4344.48L1542.13 4381.56L1523.51 4369.61L1522.61 4369.06L1542.09 4381.58L1515.23 4364.53ZM1551.7 4388.08L1543.53 4382.48L1543.54 4382.47L1551.7 4388.08L1559.74 4393.6L1560.21 4393.94L1551.7 4388.08ZM1601.78 4410.08L1594.29 4419.53L1595.07 4420.15L1595.1 4420.18L1595.23 4420.28L1595.26 4420.3L1576.36 4405.69L1595.26 4420.3L1595.33 4420.36L1595.35 4420.37L1595.36 4420.38L1595.35 4420.37L1595.36 4420.38L1595.92 4420.82L1566.64 4398.76L1593.97 4419.34L1594.85 4419.99L1569.57 4400.68L1560.56 4394.19L1565.81 4385.35L1566.85 4383.94L1573.54 4378.99L1577.78 4377.53L1581.07 4376.55L1581.2 4376.53L1584.4 4376.52L1585.31 4376.59L1591.83 4377.94L1594.98 4379.66L1597.09 4381.06L1598.45 4382.33L1602.48 4387.27L1605.05 4394.08L1605.35 4396.82L1605.19 4401.25L1604.16 4405.59L1603.64 4407.1L1601.78 4410.08ZM1598.55 4382.42L1600 4383.78L1598.9 4382.76L1598.55 4382.42ZM1607.58 4324.65L1603.24 4316.84L1582.55 4277.9L1658.45 4320.7L1724.31 4358.9L1713.02 4377.15L1711.69 4379.31L1694.94 4406.4L1672.88 4442.06L1607.58 4324.65ZM1676.9 4576.13L1676.81 4576.01L1669.6 4566.78L1660.59 4555.87L1671.81 4569.44L1682.9 4583.78L1683.23 4584.23L1679.77 4579.8L1685.31 4587.07L1676.9 4576.13ZM1689.87 4451.96L1701.38 4433.35L1741.41 4368.62L1806.29 4406.09L1806.56 4406.25L1806.73 4406.35L1885.69 4451.96L1689.87 4451.96ZM1791.31 4654.97L1704.12 4498.22L1698.86 4488.56L1842.83 4571.67L1834.35 4585.39L1831.66 4589.74L1830.56 4591.52L1791.31 4654.97ZM1809.39 4663.1L1859.86 4581.5L2004.14 4664.84L1809.39 4663.1ZM1926.99 4878.15L1909.97 4868.31V4868.3L1817.06 4701.25L1959.8 4783.83L1948.95 4805.01L1909.97 4868.3L1926.99 4878.15L1938.1 4860.11L1978.44 4794.61L2122.84 4878.15H1926.99ZM2026.33 4799.61L2028.7 4800.99L1988.75 4777.87L2020.27 4726.69L2030.26 4710.47L2040.17 4694.37L2133.15 4861.41L2026.33 4799.61Z" fill="#7C4848"/>
<path d="M1183.8 2591.9L1183.7 2590.8L1183.8 2591.9Z" fill="#7C4848"/>
<path d="M1218.4 2849.2H1218.5L1218.3 2848L1218.4 2849.2Z" fill="#7C4848"/>
<path d="M1216 2833.2V2833.3L1215.9 2832.4L1216 2833.2Z" fill="#7C4848"/>
<path d="M1245.6 1936.3V1936.1L1245.8 1939.4L1245.6 1936.3Z" fill="#7C4848"/>
<path d="M1216.2 2834.5L1216.4 2836.1V2836L1216.2 2834.5Z" fill="#7C4848"/>
<path d="M1079.7 2562.4L1083.4 2531.2L1081.3 2549.3L1079.7 2562.4Z" fill="#7C4848"/>
<path d="M1228.4 366.07L1228 364.4L1228.3 365.91L1228.4 366.07Z" fill="#7C4848"/>
<path d="M1032.1 364.4L1031.7 366.07V365.91L1032.1 364.4Z" fill="#7C4848"/>
<path d="M970.38 2424.6L970.37 2424.7L970.07 2427.4L970.38 2424.6Z" fill="#7C4848"/>
<path d="M1196 869.37V869.35L1196.6 897.07L1196 869.37Z" fill="#7C4848"/>
<path d="M1008.3 2017.1L1007.9 2022.7L1008.3 2017V2017.1Z" fill="#7C4848"/>
<path d="M1224.2 2884.5L1222.4 2873.8L1223.3 2879L1224.2 2884.5Z" fill="#7C4848"/>
<path d="M1034.9 1621.9L1036.3 1597.4V1598L1034.9 1621.9Z" fill="#7C4848"/>
<path d="M1038.4 2869V2869.3L1038.3 2869.8L1038.4 2869Z" fill="#7C4848"/>
<path d="M1107.5 2309.2V2309.4L1107.6 2309L1107.5 2309.2Z" fill="#7C4848"/>
<path d="M1164.1 2418.7L1164.7 2424.6L1164.3 2420.4L1164.1 2418.7Z" fill="#7C4848"/>
<path d="M1219.2 1512.8L1219.3 1513.5L1219.2 1512.8Z" fill="#7C4848"/>
<path d="M1242.2 1889.5L1242.1 1887.6V1888.2L1242.2 1889.5Z" fill="#7C4848"/>
<path d="M1040.9 2853.3V2853.5L1041.2 2851.5L1040.4 2856.3L1040.8 2854.1L1040.9 2853.3Z" fill="#7C4848"/>
<path d="M1041.5 2849.6L1041.4 2850.5L1041.6 2849.3L1042.5 2843L1040.9 2853.3L1041.1 2852.5L1041.5 2849.6Z" fill="#7C4848"/>
<path d="M1220.1 2859.6V2859.2L1219.2 2853.6L1220.1 2859.6Z" fill="#7C4848"/>
<path d="M1008.7 2012.1L1008.5 2015L1008.7 2012.1Z" fill="#7C4848"/>
<path d="M970.57 2422.9L970.37 2424.7L970.74 2421.3L970.57 2422.9Z" fill="#7C4848"/>
<path d="M934.21 2714.7L934.23 2714.5L934.22 2714.6L934.21 2714.7Z" fill="#7C4848"/>
<path d="M934.19 2714.9L934.16 2715.1L932.25 2728.4L934.19 2714.9Z" fill="#7C4848"/>
<path d="M1059 2728.4L1059.9 2721.8L1058.9 2729.4L1059 2728.4Z" fill="#7C4848"/>
<path d="M1086.3 2174.2L1084.7 2191.5L1085.4 2183.9L1086.3 2174.2Z" fill="#7C4848"/>
<path d="M932.24 2728.4L932.06 2729.7L932.25 2728.4L934.17 2715L931.66 2732.5L932.24 2728.4Z" fill="#7C4848"/>
<path d="M1178.7 264.58L1178.5 263.2L1177.8 260.06L1178.6 264.21L1178.7 264.58Z" fill="#7C4848"/>
<path d="M1057.2 1126.5V1126.6L1058 1101.4L1057.2 1126.5Z" fill="#7C4848"/>
<path d="M1183.5 2589.3L1183.6 2589.8L1183.5 2589.4V2589.3Z" fill="#7C4848"/>
<path d="M1182.3 2579.7L1182.4 2580.3V2579.9L1182.3 2579.7Z" fill="#7C4848"/>
<path d="M1184.2 2595L1184.3 2595.9L1183.8 2591.9L1184.2 2595Z" fill="#7C4848"/>
<path d="M1206.6 1231.5L1207.5 1255.3V1255.1L1206.6 1231.5Z" fill="#7C4848"/>
<path d="M1052.5 1255L1053.5 1231.5L1052.5 1255.3V1255Z" fill="#7C4848"/>
<path d="M1038.5 2868.5L1038.4 2869.3L1038.5 2868.1V2868.5Z" fill="#7C4848"/>
<path d="M1040.8 1512.8L1041.9 1491.8L1040.8 1512.6V1512.8Z" fill="#7C4848"/>
<path d="M971.01 2418.9L971.42 2415.1L973.1 2399.5L973.26 2398L970.81 2420.6L971.01 2418.9Z" fill="#7C4848"/>
<path d="M934.17 2715L934.16 2715.1L934.17 2715Z" fill="#7C4848"/>
<path d="M1325.9 2714.9L1328 2729.7L1325.9 2715.5V2714.9Z" fill="#7C4848"/>
<path d="M1025.9 1770.3V1770.6L1027.1 1752L1025.9 1770.3Z" fill="#7C4848"/>
<path d="M1201 2728.4L1201.2 2729.4L1200.2 2721.9L1201 2728.4Z" fill="#7C4848"/>
<path d="M1075.2 2600.8L1075.5 2597.7L1075.3 2599.8L1075.2 2600.8Z" fill="#7C4848"/>
<path d="M1185 2601.9L1184.8 2599.9V2599.8L1184.9 2600.8L1184.8 2599.9L1185.1 2602.8L1185 2601.9Z" fill="#7C4848"/>
<path d="M1185 2601.9L1188.3 2628.9L1185 2601.9Z" fill="#7C4848"/>
<path d="M1276 2292.6L1275.8 2290.6L1275.7 2289.8L1276 2292.6Z" fill="#7C4848"/>
<path d="M1083.4 2531.2L1083.6 2529.7L1083.1 2533.8L1083.4 2531.2Z" fill="#7C4848"/>
<path d="M1347.8 2858.2L1348 2859.2L1347.8 2858.2Z" fill="#7C4848"/>
<path d="M1214.8 2825.6L1215.9 2832.7L1214.9 2826.2L1214.8 2825.6Z" fill="#7C4848"/>
<path d="M1348.1 2860.1L1348 2859.5L1348.1 2859.8V2860.1Z" fill="#7C4848"/>
<path d="M1226.1 2895.6L1225.9 2894.3L1225.4 2891.1L1226.1 2895.6Z" fill="#7C4848"/>
<path d="M1227.3 2902.3L1227.1 2901.1L1227.4 2902.5L1227.3 2902.3Z" fill="#7C4848"/>
<path d="M1033.3 2899L1036.8 2878.4L1033.9 2895.6L1033.3 2899Z" fill="#7C4848"/>
<path d="M1075.9 2595L1076.1 2592.6L1075.5 2597.7L1075.9 2595Z" fill="#7C4848"/>
<path d="M1184.3 2595.9L1184.5 2597.7L1183.9 2592.6L1184.3 2595.9Z" fill="#7C4848"/>
<path d="M1325.5 2712.5L1322.4 2690.2L1323.4 2697.4L1325 2708.9L1324.7 2706.7L1325.5 2712.5Z" fill="#7C4848"/>
<path d="M1244.7 3296.4L1245.1 3298.7L1245 3297.6L1244.7 3296.4Z" fill="#7C4848"/>
<path d="M1014.9 3298.7L1014.7 3299.6L1014.5 3300.9L1014.9 3298.7Z" fill="#7C4848"/>
<path d="M1014 3303.9L1013.2 3308.3L1012.1 3314.7L1014 3303.9Z" fill="#7C4848"/>
<path d="M1245.1 3298.7L1245.5 3300.9L1245.3 3299.7L1245.1 3298.7Z" fill="#7C4848"/>
<path d="M1004.2 2067.5L1005 2057.8L1004.8 2060.8V2061.2L1004.2 2067.5Z" fill="#7C4848"/>
<path d="M1008.1 2019.8L1006.5 2039.4L1006.3 2042L1004.8 2060.8L1008.1 2019.8Z" fill="#7C4848"/>
<path d="M952.29 2579.2L952.28 2579.3L952.9 2574.2L952.25 2579.3H952.28H952.25L951.34 2586.6L952.27 2579.3L950.91 2589.9L952.1 2580.5L945.92 2628.9L950.29 2595L952.29 2579.2Z" fill="#7C4848"/>
<path d="M1077.1 2584.5L1077.47 2581.48L1076.52 2589.37L1076.46 2589.86L1077.47 2581.45L1077.59 2580.46L1077.61 2580.29L1077.64 2580.05L1077.67 2579.74L1077.68 2579.7V2579.69L1077.69 2579.58L1077.68 2579.69V2579.64L1077.69 2579.58L1077.7 2579.55V2579.53L1083.54 2529.66L1077.69 2579.48L1077.1 2584.5ZM1077.66 2579.82L1077.64 2580.04L1077.66 2579.85V2579.82L1077.67 2579.77L1077.67 2579.75L1077.66 2579.82Z" fill="#7C4848"/>
<path d="M1328.4 2732.5L1325.9 2715.1V2715L1328.4 2732.5Z" fill="#7C4848"/>
<path d="M1061.9 2706.7L1067.3 2664.5L1062 2705.8L1061.9 2706.7Z" fill="#7C4848"/>
<path d="M1001.6 3371.6L1004.5 3356.5L1004.1 3358.6L1001.6 3371.6Z" fill="#7C4848"/>
<path d="M998.2 3389.6L997.18 3394.9H997.21L998.2 3389.6Z" fill="#7C4848"/>
<path d="M818.76 3332.7L818.12 3335L818.89 3332.3L818.76 3332.7Z" fill="#7C4848"/>
<path d="M809.43 3365.8H809.42L813.19 3352.6L809.43 3365.8Z" fill="#7C4848"/>
<path d="M1441.3 3332.7L1441.1 3332.3L1441.9 3335L1441.3 3332.7Z" fill="#7C4848"/>
<path d="M1279.1 2323.4L1277.9 2311.1L1277.4 2306.6L1279.1 2323.4Z" fill="#7C4848"/>
<path d="M1277.7 2309.4L1277.4 2306.6L1276 2292.6L1277.7 2309.4Z" fill="#7C4848"/>
<path d="M1263.5 3398.4L1261.8 3389.6L1264.3 3402.4L1263.5 3398.4Z" fill="#7C4848"/>
<path d="M1276.7 3464.7L1272.8 3445.4L1275.9 3460.7L1276.7 3464.7Z" fill="#7C4848"/>
<path d="M1221.2 2866.4V2866.6L1221.1 2865.9L1221.3 2866.7L1221.2 2866.3L1221.4 2867.5L1221.2 2866.6V2866.4Z" fill="#7C4848"/>
<path d="M1265.9 3410.9L1264.9 3405.8L1265.2 3407.1L1265.9 3410.9Z" fill="#7C4848"/>
<path d="M995.62 3403.1L995.09 3405.8L994.85 3407.1L995.62 3403.1Z" fill="#7C4848"/>
<path d="M1270.2 3432.5L1271.8 3440.5L1270.2 3432.5Z" fill="#7C4848"/>
<path d="M1271.9 3440.7L1272.1 3441.8L1271.8 3440.5V3440.4L1271.9 3440.7Z" fill="#7C4848"/>
<path d="M1325.9 2715.2L1326.1 2716.3L1326.2 2717L1325.9 2715.2Z" fill="#7C4848"/>
<path d="M1326.1 2716.3L1325.9 2715.1L1329.4 2739.3L1326.1 2716.3Z" fill="#7C4848"/>
<path d="M1216.4 2836.2L1217.3 2841.6L1216.5 2836.7L1218.5 2849.6L1218.9 2852.2L1218.6 2850.1L1218.2 2847.2L1218.8 2851.2L1220.1 2859.2V2859.4L1219.9 2858.2L1218.8 2851.2L1219.7 2856.6L1218.8 2851.2L1218.2 2847.2L1216.4 2835.8V2836V2836.2Z" fill="#7C4848"/>
<path d="M721.9 3655.2L727.78 3636.8L727.48 3637.7L721.9 3655.2Z" fill="#7C4848"/>
<path d="M1187.9 2625.3L1188.3 2628.9L1187.5 2621.9L1187.9 2625.3Z" fill="#7C4848"/>
<path d="M1221.5 2868L1221.6 2868.5L1221.3 2866.8L1221.5 2868Z" fill="#7C4848"/>
<path d="M1223 2876.8L1226.7 2899V2898.6L1223 2876.8Z" fill="#7C4848"/>
<path d="M1545.2 3677.1L1544.9 3676.1L1545.1 3676.8L1545 3676.5L1545.2 3677.1Z" fill="#7C4848"/>
<path d="M1544.9 3676.2L1544.1 3673.7L1544.9 3676.1V3676.2Z" fill="#7C4848"/>
<path d="M1005.7 3350.1V3349.8L1005.9 3349L1005.7 3350.1Z" fill="#7C4848"/>
<path d="M1005.2 3352.7L1005.1 3353.3L1005.2 3352.7Z" fill="#7C4848"/>
<path d="M1005.3 3352.3L1005.7 3349.8L1005.3 3351.9V3352.3Z" fill="#7C4848"/>
<path d="M1005.2 3352.4L1005.3 3352.3L1005.2 3352.4Z" fill="#7C4848"/>
<path d="M933.98 2716.3L933.38 2720.4L933.8 2717.5L933.98 2716.3Z" fill="#7C4848"/>
<path d="M1241.3 3276.3L1241.2 3276.2L1241.3 3276.3Z" fill="#7C4848"/>
<path d="M1241.3 3276.4L1242 3280.7L1241.7 3278.8L1242.1 3281.3L1241.7 3278.7L1242.6 3284.3L1242.7 3284.6V3284.9L1242.8 3285L1241.6 3278.2L1238.7 3261.3L1241.3 3276.3L1241.7 3278.7L1241.3 3276.4Z" fill="#7C4848"/>
<path d="M983.3 3464.7L987.96 3441.8L986.37 3449.6L987.84 3442.4L987.22 3445.4L983.3 3464.7Z" fill="#7C4848"/>
<path d="M1253.1 3343.3L1253.4 3344.7L1253.6 3345.6L1253.1 3343.3Z" fill="#7C4848"/>
<path d="M1006.7 3344.7L1006.9 3343.2L1006.5 3345.7L1006.7 3344.7Z" fill="#7C4848"/>
<path d="M1252.5 3340.1L1253.4 3344.7L1252.7 3341L1252.5 3340.1Z" fill="#7C4848"/>
<path d="M1545.1 3676.8L1546.4 3680.8L1545.1 3676.8L1545.2 3677.1L1545.1 3676.8Z" fill="#7C4848"/>
<path d="M929.92 3701.1L930.18 3700L928.36 3707.2L929.92 3701.1Z" fill="#7C4848"/>
<path d="M1441.1 3332.3V3331.9V3332.1L1440.5 3329.9L1440.9 3331.5L1441.1 3332.3Z" fill="#7C4848"/>
<path d="M1219.2 2853.5L1220.8 2863.9L1218.9 2851.5L1219.2 2853.5Z" fill="#7C4848"/>
<path d="M1220.6 2862.4L1220.5 2861.8L1220.3 2860.5L1220.6 2862.4Z" fill="#7C4848"/>
<path d="M1220.5 2861.8L1221.9 2870.6L1220.5 2861.8Z" fill="#7C4848"/>
<path d="M670.62 3810.7L675.87 3795.2L675.55 3796.1L670.62 3810.7Z" fill="#7C4848"/>
<path d="M680.63 3781.1L681.26 3779.2L680.93 3780.2L680.63 3781.1Z" fill="#7C4848"/>
<path d="M1351.7 3784.3L1351.8 3784.7L1351.9 3785.1L1351.7 3784.3Z" fill="#7C4848"/>
<path d="M908.53 3783.6L908.13 3785.1L908.03 3785.5L909.74 3779.2L908.53 3783.6Z" fill="#7C4848"/>
<path d="M1006.4 3346L1006.9 3343.2L1007.1 3342.2L1006.4 3346Z" fill="#7C4848"/>
<path d="M1436.3 3314.9L1436.4 3315.1L1434.7 3308.8L1436.3 3314.9Z" fill="#7C4848"/>
<path d="M908.03 3785.5H908.04L908.54 3783.6L908.03 3785.5Z" fill="#7C4848"/>
<path d="M907.58 3787.2L908.04 3785.5H908.03L907.58 3787.2Z" fill="#7C4848"/>
<path d="M1352.5 3787.2L1352 3785.5L1351.5 3783.6L1352.5 3787.2Z" fill="#7C4848"/>
<path d="M894.51 3834.1L894.44 3834.3L893.98 3836L894.51 3834.1Z" fill="#7C4848"/>
<path d="M899.87 3815.1L896.86 3825.8L901.11 3810.8L899.87 3815.1Z" fill="#7C4848"/>
<path d="M897.37 3823.9L894.44 3834.3L896.22 3828L897.37 3823.9Z" fill="#7C4848"/>
<path d="M891.67 3843.9L892.97 3839.4L891.01 3846.1L891.67 3843.9Z" fill="#7C4848"/>
<path d="M885.27 3865.5L885.04 3866.3L884.3 3868.8L885.27 3865.5Z" fill="#7C4848"/>
<path d="M971.66 3520.2L971.62 3520.4L971.73 3519.9L971.45 3521.2L971.66 3520.2Z" fill="#7C4848"/>
<path d="M972.39 3516.8L971.91 3519L971.79 3519.6L971.67 3520.2L972.39 3516.8Z" fill="#7C4848"/>
<path d="M971.79 3519.6L971.73 3519.9L971.79 3519.6Z" fill="#7C4848"/>
<path d="M971.84 3519.4L971.91 3519L972.41 3516.7L971.84 3519.4Z" fill="#7C4848"/>
<path d="M975.3 3503.1L973.01 3513.9L975 3504.5L975.3 3503.1Z" fill="#7C4848"/>
<path d="M972.54 3516.1H972.53L971.46 3521.1L972.42 3516.7H972.41L972.39 3516.8L972.54 3516.1Z" fill="#7C4848"/>
<path d="M1012 3314.7L1009.7 3328.3L1012.1 3314.7L1012 3315L1012.9 3309.8L1012.2 3314L1014.2 3302.7L1012 3314.7Z" fill="#7C4848"/>
<path d="M1343.1 3752.1L1343.8 3754.8L1343.4 3753.1L1343.1 3752.1Z" fill="#7C4848"/>
<path d="M1349.1 3774.6L1349 3774.5V3774.4L1349.1 3774.6Z" fill="#7C4848"/>
<path d="M1011.7 3316.6L1009.6 3328.1L1012.3 3313.3L1009.6 3328.2L1008.2 3336.1L1008.1 3336.9L1011.7 3316.6Z" fill="#7C4848"/>
<path d="M1006.2 3347L1005.3 3351.9L1006.4 3346.1L1006.2 3347Z" fill="#7C4848"/>
<path d="M765.1 3516.8L765.99 3513.8L765.73 3514.7L765.1 3516.8Z" fill="#7C4848"/>
<path d="M643.63 3889.2L640.54 3898.1L640.59 3897.9L640.53 3898.1L640.59 3897.9L641.38 3895.7L641.5 3895.4L643.44 3889.8L641.5 3895.3H641.52L643.63 3889.2Z" fill="#7C4848"/>
<path d="M885.04 3866.3L883.98 3869.8H884.021L885.04 3866.3Z" fill="#7C4848"/>
<path d="M975.93 3500.1L975.75 3501L976.15 3499.1L975.93 3500.1Z" fill="#7C4848"/>
<path d="M818.03 3335.3L811.56 3358.2L814.96 3346.3L818.03 3335.3Z" fill="#7C4848"/>
<path d="M1222.6 2874.7L1224.2 2884.5L1225.9 2894.3L1222.6 2874.7Z" fill="#7C4848"/>
<path d="M1054.7 2759.7L1054.1 2764L1058.4 2732.5L1054.8 2759.3L1055.3 2755.2L1055 2757.6L1054.7 2759.6V2759.7Z" fill="#7C4848"/>
<path d="M1197.2 2699.1L1198.9 2712.1L1199.1 2713.8L1192.3 2660.8L1197 2697.7L1197.2 2699.1Z" fill="#7C4848"/>
<path d="M935.39 2706.3L935.34 2706.7L935.07 2708.6L935.39 2706.3H935.4L935.55 2705.2L935.32 2706.8L935.39 2706.3Z" fill="#7C4848"/>
<path d="M1307.8 2579.4V2579.5V2579.4V2579.5L1307.1 2574L1307.8 2579.3V2579.4Z" fill="#7C4848"/>
<path d="M1180.5 2563.8L1182.3 2579.7V2579.5L1180.5 2563.8Z" fill="#7C4848"/>
<path d="M1205 2757.7L1205.9 2764L1205.2 2758.9L1205 2757.7Z" fill="#7C4848"/>
<path d="M972.92 3514.3L972.53 3516.1L975.75 3501L972.92 3514.3Z" fill="#7C4848"/>
<path d="M1449.7 3362.4L1441.9 3334.8L1444.6 3344.7L1449.7 3362.4Z" fill="#7C4848"/>
<path d="M1324.3 3677.5L1327.1 3689.1L1323.4 3673.7L1324.3 3677.5Z" fill="#7C4848"/>
<path d="M718.29 3666.5L714.78 3677.4L715.48 3675.2L713.67 3680.8L714.48 3678.3L714.99 3676.8L714.88 3677.1L715.13 3676.3L714.99 3676.8L718.42 3666.1L715.72 3674.5L718.29 3666.5Z" fill="#7C4848"/>
<path d="M718.77 3665L719.719 3662.1L718.94 3664.5L718.77 3665Z" fill="#7C4848"/>
<path d="M1269.8 3430.5L1270.2 3432.5L1270.1 3431.9L1269.8 3430.5Z" fill="#7C4848"/>
<path d="M994.1 3410.9L994.68 3407.9L989.82 3432.5L994.1 3410.9Z" fill="#7C4848"/>
<path d="M1544.1 3673.7L1545.1 3676.8L1544.1 3673.7Z" fill="#7C4848"/>
<path d="M936.67 3673.7L932.91 3689.1L936.15 3675.8L936.67 3673.7Z" fill="#7C4848"/>
<path d="M936.63 3673.7L931.9 3693L939.14 3663.5L939.52 3661.9L936.63 3673.7Z" fill="#7C4848"/>
<path d="M939.47 3662.1L939.14 3663.5L938.1 3667.7L939.47 3662.1Z" fill="#7C4848"/>
<path d="M866.31 3925.8L866.38 3925.6L865.99 3926.8L866.31 3925.8Z" fill="#7C4848"/>
<path d="M808.74 3368.2L804.02 3384.8L805.549 3379.5L808.74 3368.2Z" fill="#7C4848"/>
<path d="M763.52 3521.9L760.97 3530.3L765.1 3516.8H765.08L763.52 3521.9Z" fill="#7C4848"/>
<path d="M899.5 3816.4L899.87 3815.1L899.49 3816.4H899.5Z" fill="#7C4848"/>
<path d="M716.57 3671.8L715.46 3675.2H715.48L718.13 3667L716.57 3671.8Z" fill="#7C4848"/>
<path d="M721.41 3656.8L718.94 3664.5L720.84 3658.6L721.41 3656.8Z" fill="#7C4848"/>
<path d="M939.59 3661.6L939.47 3662.1L939.6 3661.5L939.59 3661.6Z" fill="#7C4848"/>
<path d="M1319.7 3658.3L1319.5 3657.7L1319.7 3658.3Z" fill="#7C4848"/>
<path d="M1354.6 3794.9L1354.4 3794.4V3794.3L1354.6 3794.9Z" fill="#7C4848"/>
<path d="M1373.8 3862.3L1370.9 3852.7L1372.5 3857.9L1373.8 3862.3Z" fill="#7C4848"/>
<path d="M1327.1 3689.1L1329.6 3698.9L1328.4 3693.9L1327.1 3689.1Z" fill="#7C4848"/>
<path d="M889.39 3851.7L889.65 3850.8L889.42 3851.6L889.39 3851.7Z" fill="#7C4848"/>
<path d="M889.86 3850.1L889.54 3851.2L890.01 3849.6L889.86 3850.1Z" fill="#7C4848"/>
<path d="M714.88 3677L714.1 3679.5L715.48 3675.2H715.46L714.88 3677Z" fill="#7C4848"/>
<path d="M1288.7 3521.9L1295.8 3554.5L1291.7 3535.2L1288.7 3521.6L1289.1 3523.3L1288.7 3521.9Z" fill="#7C4848"/>
<path d="M924.13 3724.1L918.56 3745.7L920.26 3739.2H920.25H920.27H920.26L921.92 3732.7L920.57 3738L924.13 3724.1Z" fill="#7C4848"/>
<path d="M1545.2 3677L1545.1 3676.8L1545.3 3677.5L1545.2 3677Z" fill="#7C4848"/>
<path d="M1349.2 3774.9L1349 3774.4L1349.4 3775.6L1349.2 3774.9Z" fill="#7C4848"/>
<path d="M1357.6 3806L1349.9 3777.8L1351.2 3782.3L1357.6 3806Z" fill="#7C4848"/>
<path d="M911.01 3774.4L910.85 3775L910.69 3775.6L911.01 3774.4Z" fill="#7C4848"/>
<path d="M1298.7 4276.6L1293.6 4275.4L1298.7 4276.6Z" fill="#7C4848"/>
<path d="M1330.1 3701.1L1331.7 3707.2L1329.6 3698.9L1330.1 3701.1Z" fill="#7C4848"/>
<path d="M919.1 4287.8L893.32 4295.9L930.28 4284.5L929.5 4284.8L931.69 4284.1L919.1 4287.8Z" fill="#7C4848"/>
<path d="M868.62 4304.6L857.04 4309.1L830.99 4319.9L868.62 4304.6Z" fill="#7C4848"/>
<path d="M793.66 4337.5L791.33 4338.7L796.05 4336.3L793.66 4337.5Z" fill="#7C4848"/>
<path d="M661.01 3838.9L661.2 3838.4L670.55 3810.8L661.24 3838.3L669.44 3814L661.01 3838.9Z" fill="#7C4848"/>
<path d="M717.89 4381.5L716.91 4382.2L736.5 4369.6L717.89 4381.5Z" fill="#7C4848"/>
<path d="M652.92 3862.4L652.69 3863.04L653.66 3860.25L655.02 3856.35L655.25 3855.68L656.59 3851.79L657.34 3849.6L657.56 3848.97L657.62 3848.79L657.68 3848.64L657.78 3848.35L657.99 3847.72L665.53 3825.52L655.24 3855.6L682.411 3775.75L681.024 3779.88L681.014 3779.91L682.411 3775.75L682.451 3775.63L738.751 3846.32L738.511 3846.6L705.491 3869.75H742.411L753.281 3862.33L759.341 3869.75H784.721L769.581 3851.22L779.801 3844.25L875.101 3779.24V3779.23H875.111L874.771 3780.49L874.711 3780.7L874.701 3780.76V3780.77L873.461 3785.34L872.761 3787.94L870.771 3795.06L869.781 3798.48L869.481 3799.53L862.201 3824.48L853.671 3853.78L853.501 3854.35L850.971 3863.05L853.101 3855.7L848.861 3869.75H883.951L883.979 3869.75L889.336 3851.9L884.148 3869.1L889.651 3850.81L885.961 3863.04L895.411 3830.65L901.861 3808.03V3808.01L908.521 3783.63L902.431 3805.9L910.371 3776.81L910.691 3775.63L908.481 3783.59L912.941 3767.13L912.901 3767.31L913.441 3765.3L916.211 3754.78L913.431 3765.13L917.841 3748.53L913.411 3765.13L928.351 3707.17L928.361 3707.18L928.571 3706.35L928.511 3706.56L940.361 3658.3L939.801 3660.72L941.571 3653.22L940.531 3657.66L942.821 3648.06L942.891 3647.78L943.971 3643.15L944.771 3639.69L950.491 3615.19L950.849 3613.65L952.349 3607.26L953.079 3604.08L951.78 3609.65L953.191 3603.58L958.481 3580.24L959.141 3577.3L958.981 3577.98L959.211 3576.93L959.251 3576.77V3576.75L970.291 3526.49L970.417 3525.95L967.24 3540.43L964.19 3554.59L970.422 3525.93L970.451 3525.8L970.971 3523.41L970.961 3523.42L968.371 3535.16L978.541 3487.71L978.761 3486.67L978.601 3487.39L978.751 3486.67L979.081 3485.06L981.421 3473.79L980.051 3480.33L979.311 3483.82L979.261 3484.04L979.061 3484.97L978.711 3486.65L991.971 3421.08L997.152 3394.96L997.172 3394.87L1008.63 3333.56L1017.74 3282.26L1017.9 3281.35L1018.36 3278.65L1018.44 3278.23L1018.77 3276.31L1019.9 3269.62L1021.08 3262.6L1018.87 3275.51L1022.19 3255.52L1021.3 3261.3L1026.54 3229.14L1025.3 3236.83L1021.3 3261.3L1025.21 3237.44H1234.83L1235.16 3239.34L1237.85 3255.52L1235.74 3242.75L1250.42 3328.22L1249.24 3321.61L1247.77 3313.29L1247.99 3314.64L1246.95 3308.91V3308.88L1246.83 3308.21L1246.04 3303.88L1247.87 3314.2L1247.95 3314.65L1251.25 3333L1251.55 3334.63L1251.73 3335.64L1251.85 3336.31L1251.93 3336.75L1257.7 3367.65L1255.89 3358.17L1258.59 3372.42L1260.83 3384.45L1260.06 3380.28L1264.14 3401.24L1269.4 3427.59L1283.63 3497.6L1281.33 3486.65L1280 3480.33L1278.11 3471.32L1281.46 3487.48V3487.5L1283.37 3496.6L1283.48 3497.11L1283.59 3497.67L1284.74 3503.1L1285.04 3504.54L1287.1 3514.19L1287.51 3516.1H1287.5L1287.61 3516.59L1287.63 3516.71L1287.63 3516.71L1287.61 3516.59L1287.6 3516.56L1287.63 3516.71L1287.64 3516.75L1287.67 3516.87L1288.42 3520.39L1288.39 3520.25L1288.68 3521.61L1288.64 3521.4L1287.68 3516.91L1287.76 3517.29L1288.07 3518.71L1287.52 3516.09L1284.31 3501.02L1300.95 3577.27L1300.66 3576.21L1300.79 3576.76L1301.49 3579.87L1300.9 3577.3L1302.14 3582.83L1301.53 3580.06L1301.51 3579.96L1300.92 3577.28L1303.88 3590.33L1302.14 3582.82L1309.33 3614.22L1314.2 3635.09L1313.74 3633.17L1313.73 3633.14L1312.8 3629.29L1317.11 3647.59L1317.22 3648.06L1316.62 3645.26L1320.32 3660.81L1318.85 3654.77L1320.24 3660.71L1320.26 3660.79L1320.27 3660.82V3660.84L1320.47 3661.64L1320.58 3662.07L1321.65 3666.46L1326.47 3686.12L1323.44 3673.68L1331.86 3707.87L1337.13 3728.59L1346.7 3765.37L1344.22 3756.08L1344.17 3755.88L1344.12 3755.67L1343.82 3754.52L1342.3 3748.91L1342.2 3748.53L1342.24 3748.69L1342.2 3748.53L1342.32 3748.97L1346.67 3765.38L1343.83 3754.78L1344.9 3758.83L1346.66 3765.38V3765.39L1351.56 3783.59L1349.94 3777.79L1355.2 3797.07L1357.61 3805.94L1357.62 3805.96L1357.95 3807.19L1358.19 3808.05L1365.17 3832.58L1358.94 3810.77L1368.38 3843.9L1369.92 3849.2L1370.01 3849.53L1370.03 3849.6L1370.28 3850.43L1370.51 3851.22L1370.63 3851.62L1376.03 3869.68L1375.06 3866.49L1376.02 3869.75H1376.05L1376.09 3869.75L1374.08 3863.04L1376.1 3869.75H1411.12L1409.08 3863.05L1399.68 3831.79L1411.12 3869.75H1412.48L1408.91 3858.06L1406.06 3848.7L1405.56 3847.06L1387.15 3786.84L1396.05 3817.47L1386.93 3786.61L1395.28 3816.27L1390.16 3798.26L1386.93 3786.61L1386.89 3786.46L1386.58 3785.34L1387.15 3786.84L1386.2 3783.56L1386.17 3783.46L1384.94 3779.23L1480.47 3844.4L1490.46 3851.22L1475.32 3869.75H1500.7L1506.76 3862.33L1517.63 3869.75H1554.55L1521.54 3846.6L1521.29 3846.32L1577.59 3775.63L1586.61 3802.35L1594.78 3826.43L1595.21 3827.68L1596.43 3831.24L1596.94 3832.75L1598.01 3835.92V3835.9L1601.98 3847.5L1601.75 3846.85L1602.26 3848.35L1602.27 3848.36L1602.58 3849.26L1602.6 3849.3L1602.66 3849.49L1603.26 3851.23L1603.37 3851.55L1604.07 3853.58L1604.79 3855.68L1605.02 3856.34L1605.17 3856.78L1609.69 3869.75H1646.01L1643.64 3862.97L1591.84 3711.28L1552.21 3590.33L1552.47 3591.18L1551.76 3588.97L1551.52 3588.23L1495.76 3404.15L1495.64 3403.75L1495.09 3401.93L1494.42 3399.54L1494.37 3399.37L1470.07 3312.46L1469.93 3311.95L1469.81 3311.51L1465.74 3296.56L1411.49 3085.14H1434.46V3018.88L1434.49 3083.6L1434.99 3076.02L1436.62 3067.34L1439.2 3058.83L1441.63 3053.15L1444.7 3047.39L1448.1 3042.08L1452.22 3036.64L1457.2 3031.01L1463.29 3025.12L1470.81 3018.88L1479.52 3012.68L1479.18 2997.16H1479.15L1478.74 2997.15L1468.22 2996.76H1468.18L1464.76 2996.54L1464.79 2996.22L1464.97 2994.45V2994.43L1465.14 2990.35L1464.58 2987.39L1464.38 2986.78L1462.89 2983.53L1462.57 2982.93L1460.93 2980.56L1458.41 2977.97L1456.05 2976.32L1453.71 2975.04L1453.99 2974.4L1454.83 2972.88L1455.29 2968.54L1455.14 2965.85L1454.87 2964.49L1454.12 2961.73L1453.58 2960.34L1451.8 2957L1450.88 2955.73L1449.28 2953.81L1446.46 2951.48L1443.31 2949.63L1440.08 2948.46L1438.42 2948.02L1436.1 2947.72H1436.07L1434.96 2947.62L1403.06 2947.57V2918.09H1392.92L1374.7 2811.37L1346.74 2624.29L1334.4 2529.43L1334.43 2529.6L1320.03 2406.45L1320.97 2415.44L1310.34 2314.57L1310.3 2314.12L1298.98 2195.72L1287.37 2058.65L1288.18 2069.09L1287.4 2059.22L1277.41 1926.13L1277.4 1926.01L1277.39 1925.89L1259.93 1641.3V1641.44L1259.88 1640.43L1238.53 1125.5L1238.43 1122.12L1238.34 1119.06L1229.64 655.631L1230.32 648.75L1232.76 634.51L1236.16 620.9L1239.68 610.41L1242.63 603.43L1246.79 595.62L1251.88 588.28L1256.57 583.29L1265.73 582.21L1266.96 581.41L1268.75 579.51L1271.22 577.12L1271.72 576.54L1271.94 575.87L1274.07 572.191L1274.3 571.651L1275.47 567.341L1275.69 563.54L1275.14 559.651L1274.76 558.1L1274.35 556.79L1272.48 553.191L1270.36 549.96L1267.74 547.481L1267.33 547.191L1265.49 543.841L1263.84 536.31L1262.91 533.87L1262.31 531.91L1260.15 527.151L1259.37 526.2L1258.33 524.47L1244.76 523.25V498.69H1223.37V420.08H1244.76V400.42H1233.2L1232.95 394.34L1232.62 390.21L1232.44 388.28L1231.69 382.24L1230.69 376.24L1230.2 373.84L1229.76 371.69L1229.62 371.11L1229.61 371.08L1229.6 371.05L1227.95 364.39L1226.22 358.56L1224.17 352.6L1222.04 347.13L1219.59 341.56L1216.93 336.09L1214.03 330.74L1210.92 325.51L1207.6 320.41L1204.07 315.46L1200.61 311L1197.12 306.83L1192.89 302.16L1183.52 293.09L1180.85 277.27L1180.78 277.249L1179.44 269.48L1179.69 270.97L1176.67 257.8L1179.5 269.88L1177.02 257.78L1179.31 268.75L1177.8 260.05L1170.21 226.04L1166.52 208.12L1163.39 183.48L1164.72 182.69L1167.23 180.57L1169.18 177.209L1169.58 174.45L1169.25 171.78L1166.89 167.79L1162.89 165.18L1160.03 164.77L1156.4 153.7L1156.52 143.14L1159.34 141.66L1160.54 140.73L1162.27 137.75L1162.64 133.77L1161.66 131.34L1158.66 128.01L1154.12 126.6L1152.13 114.82L1152.04 102.93L1155.12 101.47L1157.02 99.2896L1157.44 97.8697L1158.1 95.15L1157.12 92.1998L1156.77 91.6397L1155.38 90.2701L1154.76 89.7799L1154.47 89.5099L1154.21 89.34L1150.98 88.5597L1149.83 72.8297L1150.89 55.2897L1154.39 51.7497L1158.55 45.4499L1160.99 38.4201L1161.77 29.6198L1160.83 23.5597L1158.11 16.61L1154.17 11.2301L1150.93 7.73009L1142.3 2.19999L1135.47 0.15019L1125.35 -0.0100098L1118.82 2.02029L1111.43 5.57989L1107.1 9.65019L1104.65 12.5398L1102.94 14.8001L1100.62 19.68L1098.72 25.5701L1098.37 31.6702L1098.87 37.76L1100.21 42.3401L1103.06 47.8499L1106.98 53.24L1109.95 55.7703L1110.26 72.8403L1109.61 79.1904L1107.58 88.9902L1105.04 89.9301L1102.34 93.8002L1102.35 95.1503L1102.88 98.3002L1104.51 100.93L1108.42 103.02L1108.22 114.87L1106.34 126.57L1101.05 128.32L1098.4 130.96L1097.24 134.86L1097.65 137.75L1099.59 140.83L1103.22 143.13L1103.55 152.46L1103.46 153.74L1103.13 154.83L1099.45 164.82L1099.09 165L1094.9 166.48L1093.51 167.83L1090.8 171.78L1090.86 177.21L1092.19 179.58L1094.4 182.2L1096.95 183.47L1093.52 208.12L1089.81 226.14L1081.28 264.9L1081.2 265.35L1076.52 293.09L1067.15 302.16L1062.92 306.83L1059.54 310.87L1055.83 315.65L1052.4 320.48L1052.39 320.49L1052.31 320.61L1048.82 325.99L1046.01 330.74L1043.12 336.09L1041.98 338.36L1041.4 339.61L1040.45 341.56L1038.01 347.13L1035.84 352.69L1033.82 358.56L1033.33 360.23L1032.09 364.39L1030.28 371.69L1029.84 373.84L1029.35 376.24L1028.12 383.88L1027.6 388.28L1027.43 390.14L1027.42 390.209V390.22L1027.1 394.34L1026.85 400.42H1015.28V420.08H1036.67V498.69H1015.28V523.25L1001.7 524.771L1000.92 525.86L999.661 528.271L998.081 531.25L997.321 533.36L996.621 535.2L995.411 539.17L994.591 543.79L994.651 544.87L994.541 545.87L989.281 551.11L987.291 553.78L986.191 555.58L985.481 557.97L985.051 558.73L984.661 560.74L984.351 563.54L984.321 564.67L984.581 567.34L985.701 570.95L985.721 571.01L986.091 572.33L986.331 572.941L988.111 576.25L988.831 576.89L991.071 579.09L992.281 580.74L994.811 582.021L1003.47 583.29L1008.16 588.28L1013.25 595.62L1017.41 603.43L1020.36 610.41L1023.89 620.9L1027.28 634.51L1029.73 648.75L1031.37 664.78L1031.56 666.67L1031.36 665.31L1031.76 677.86L1030.78 737.45V736.98L1026.97 921.66L1026.68 933.78L1026.97 922.03L1026.64 937.66L1026.21 953.64L1026.2 953.82L1021.44 1127.75L1008.25 1475.92L1000.16 1640.5L1000.11 1641.42L992.121 1781.41L992.941 1766.91L991.461 1791.06L972.871 2056.07L972.671 2058.65L972.841 2056.57L972.731 2058.05L972.691 2058.65L972.641 2059.22L972.671 2058.65L971.431 2074.13L972.641 2059.23L971.891 2068.68L971.861 2069.07L971.431 2074.13L971.391 2074.62L962.071 2184.69L962.631 2178.5L962.541 2179.6L962.071 2184.69L961.041 2195.93L950.781 2303.77L950.211 2309.45L928.381 2506.57L927.091 2517.7L926.941 2518.95L926.671 2521.14L926.371 2523.52L885.401 2810.96L867.121 2918.09H856.981V2947.57L823.961 2947.72L1403.06 2947.57L1435.57 2947.72H823.942L819.962 2948.46L818.292 2949.04L816.742 2949.63L813.582 2951.48L810.762 2953.81L809.162 2955.73L808.252 2957L806.462 2960.34L805.922 2961.73L805.172 2964.49L804.902 2965.85L804.832 2968.46L804.852 2969.32L805.212 2972.88L805.902 2975L804.852 2975.82L804.222 2976.16L801.582 2978.03L799.052 2980.56L797.792 2982.38L796.702 2984.52L795.662 2986.78L795.462 2987.39L794.902 2990.35L794.892 2990.52L795.062 2994.29L795.072 2994.45L795.252 2996.21L788.452 2996.89L783.022 2997.09L781.302 2997.15L780.862 2997.16L780.522 3012.68L789.232 3018.88L796.752 3025.12L802.842 3031.01L807.822 3036.64L811.942 3042.08L815.342 3047.39L818.412 3053.15L820.852 3058.83L823.422 3067.34L825.052 3076.02L825.552 3083.6L825.582 3018.87V3085.14H848.552L819.922 3198.85L805.152 3255.47L790.184 3311.68L790.11 3311.95L790.18 3311.7L790.112 3311.95L790.062 3312.14L774.442 3368.09L770.592 3381.89L770.572 3381.95L770.172 3383.35L774.442 3368.09L768.502 3389.11L768.402 3389.45L768.382 3389.53L768.272 3389.91L768.052 3390.68V3390.7L758.442 3424.04L742.002 3479.73L735.682 3500.75L735.572 3501.1L725.022 3535.1L707.882 3590.17L707.562 3591.2L707.472 3591.49L707.172 3592.43L690.072 3645.2L689.222 3647.79L676.932 3685.73L676.532 3686.92L674.312 3693.51L676.092 3688.05L676.342 3687.3L689.222 3647.79L666.422 3716.81L644.092 3783.26L644.042 3783.41L616.412 3862.97L614.032 3869.75H650.362L652.922 3862.4L652.92 3862.4ZM1288.3 3519.84L1287.66 3516.87L1287.67 3516.91L1288.3 3519.84ZM1618.82 3791.67L1619.9 3794.84L1619.82 3794.63L1619.66 3794.16L1618.71 3791.45L1618.67 3791.32L1618.64 3791.24L1618.63 3791.21L1618.5 3790.82L1617.75 3788.59L1617.72 3788.49L1617.25 3787.09L1618.82 3791.67ZM1230.09 373.37L1230.1 373.46L1230 372.94L1230.09 373.37ZM1029.79 374.15L1029.85 373.86L1029.87 373.8L1029.79 374.15ZM1246.05 2657.75H1300.12L1296.62 2664.2L1296.55 2664.33L1296.47 2664.48L1278.56 2697.48L1246.05 2657.75ZM1267.52 2715.03L1245.6 2757.88L1240.99 2766.7L1227.69 2666.36L1267.52 2715.03ZM1222.18 2622.53L1222.15 2622.29L1211.33 2531.33L1211.29 2531.27L1210.16 2521.46L1211.33 2531.33L1249.56 2581.12L1223.26 2631.27L1224.72 2643.01H1224.71L1223.24 2631.31L1223.26 2631.27L1222.18 2622.53ZM1077.97 2773.21L1130.02 2728.44L1182.07 2773.21H1077.97ZM1180.47 2794.24L1130.02 2837.63L1079.57 2794.24L1130.02 2792.87L1180.47 2794.24ZM1051.29 2509.21L1050.78 2513.72H1050.77L1051.29 2509.21ZM1037.91 2622.12L1036.8 2631.31L1036.55 2630.85L1036.07 2629.93L1010.49 2581.12L1048.71 2531.33L1049.91 2521.21L1048.75 2531.27L1048.71 2531.33L1037.91 2622.12ZM1013.99 2657.75L981.48 2697.48L964.61 2666.39L963.94 2665.16L959.93 2657.75L1013.99 2657.75ZM1010.31 2581.35L1029.2 2616.98L1010.44 2581.61L1010.31 2581.35ZM998.88 2562.41L976.99 2522.64H1030.51L998.88 2562.41ZM1013.09 2629L1018.11 2638.1H963.78L995.89 2597.74L1013.09 2629ZM1031.38 1962.55L1061.84 1921.83L1086.82 1962.55L1104.75 1967.45H1104.71L1086.82 1962.55H1031.38ZM1096.42 1569.51H1054.45L1076.4 1532.08L1096.42 1569.51ZM1060.34 1460.39H1095.67L1086.05 1476.79L1077.19 1491.89L1060.34 1460.39ZM1112.41 1818.44L1081.88 1770.38L1112.82 1725.13V1819.08L1112.41 1818.44ZM1112.82 1832.35L1112.8 1838.16L1112.77 1839.71L1112.82 1832.35ZM1112.45 1688.05L1085.4 1641.42L1112.82 1597.47V1688.69L1112.45 1688.05ZM1094.8 1589.16L1073.67 1621.94L1065.02 1607.18L1054.45 1589.16H1094.8ZM1072.89 1659.44L1095.67 1698.28H1047.85L1072.89 1659.44ZM1093.84 1717.94L1069.73 1752.03L1047.82 1717.94H1093.84ZM1094.83 1827.43H1040.47L1068.95 1787.16L1094.83 1827.43ZM1112.37 1854.28L1112.09 1854.65L1108.6 1916.31L1108.57 1916.75L1105.7 1955.73L1101.98 1949.56L1074.91 1904.35L1112.09 1854.65L1112.61 1845.58L1112.77 1839.72L1112.66 1844.68L1112.61 1845.58L1112.37 1854.28ZM1093.2 1847.09L1066.2 1883.19L1062.32 1885.03L1039.04 1847.09L1093.2 1847.09ZM1111.24 2272.87L1119.26 2310.07L1103.78 2345.51L1104.08 2342.58L1105.6 2328.01L1104.91 2334.61L1104.08 2342.58L1111.24 2272.87ZM1065.55 1311.96L1082.27 1277.81L1097.63 1311.96H1065.55ZM1096.42 1331.62L1080.3 1361.75L1065.55 1331.62H1096.42ZM1056.38 1150.89L1058.42 1089.25L1074.04 1126.52L1055.83 1166.99L1056.39 1150.87L1056.38 1150.89ZM1060.36 1024.02L1060.99 1001.08L1061.08 997.91L1062.03 960.97L1076.17 997.91L1060.01 1036.74L1060.37 1024L1060.36 1024.02ZM1064.04 869.4L1064.68 833.83L1077.82 869.47L1063.28 906.76L1064.04 869.4ZM1126.65 2232.8L1130.02 2218.34L1133.39 2232.8H1126.65ZM1133.39 2252.45L1130.02 2266.91L1128.34 2252.45H1133.39ZM1130.02 2334.64L1144.62 2367.91H1115.42L1130.02 2334.64ZM1195.02 811.84L1194.89 803.36L1196.76 906.77L1182.22 869.48V869.47L1195.36 833.84L1195.02 811.84ZM1197.62 944.82L1197.32 932.03L1198.17 967.36L1198.96 997.84V997.93L1200.04 1036.75L1183.87 997.92L1198.01 960.98L1197.62 944.82ZM1204.21 1167L1186.01 1126.53L1201.62 1089.26L1202.86 1126.51V1126.53L1204.21 1167ZM1268.08 2488.3L1273.22 2494.88L1279.55 2502.99H1225.9L1248.28 2462.92L1268.08 2488.3ZM1241.94 2638.1L1264.15 2597.74L1296.26 2638.1H1241.94ZM1261.16 2562.41L1229.53 2522.64H1283.05L1261.16 2562.41ZM1245.56 2427.49L1214.38 2387.53H1267.88L1245.56 2427.49ZM1174.65 2184.07L1173.77 2174.94L1169.09 2125.82L1197.99 2163.46L1207.06 2175.27L1178.68 2225.92L1178.45 2223.58L1173.71 2174.2L1174.65 2184.07ZM1163.18 2060.79L1161.39 2040L1157.14 1990.46L1195.16 2040.12L1165.88 2090.89L1165.48 2086.48L1161.58 2042.12L1163.18 2060.79ZM1233.85 2328.01L1264.62 2367.88H1211.15L1233.85 2328.01ZM1192.47 2360.96L1191.31 2349.73L1182.18 2261.07L1218.97 2308.73L1219.01 2308.78L1219.07 2308.86L1219.09 2308.89L1220.01 2310.08L1192.47 2360.96ZM1244.39 2309.5L1245.03 2310.31L1253.02 2320.67L1244.39 2309.5ZM1231.37 2292.64L1216.12 2272.87L1200.33 2252.42H1254.27L1231.37 2292.64ZM1197.44 2232.77L1220.65 2192.95L1251.23 2232.77H1197.44ZM1218.41 2157.78L1187.33 2117.31H1242L1218.41 2157.78ZM1184.73 2097.66L1208.63 2057.72L1239.21 2097.66H1184.73ZM1206.64 2022.79L1175.56 1982.2L1156.08 1977.29V1977.28L1175.56 1982.2H1230.94L1206.64 2022.79ZM1156.27 2345.5L1152.54 2309.21L1152.54 2309.24L1148.8 2272.87L1152.49 2309.1L1156.27 2345.5L1154.87 2332.12L1155.13 2334.61L1156.27 2345.5L1140.78 2310.07L1148.8 2272.87L1145.29 2237.68L1140.68 2190.48L1156.27 2345.51L1156.27 2345.5ZM1147.25 833.8L1158.56 862.84L1159.08 864.17L1161.13 869.44L1147.22 907.16V833.73L1147.25 833.8ZM1147.22 777.83V706.17L1160.13 741.01L1147.22 777.83ZM1162.42 997.88L1147.22 1037.15V961L1162.42 997.88ZM1168.3 777.34L1170.92 770.12L1180.82 796.84H1161.23L1168.3 777.34ZM1161.34 687.72H1179.88L1170.71 713.01L1161.34 687.72ZM1161.59 1054.39L1173.44 1023.97L1186.11 1054.39H1161.59ZM1185.46 1075.6L1174.72 1101.4L1163.11 1075.6H1185.46ZM1168.48 960.94L1161.95 945.27H1183.02L1172.84 971.4L1168.48 960.94ZM1161.34 925.61L1171.91 897.09L1183.02 925.61H1161.34ZM1161.59 816.49H1180.82L1171.45 841.78L1161.59 816.49ZM1164.14 1126.49V1126.5L1147.22 1167.43V1088.17L1164.14 1126.49ZM1151.08 1420.28L1147.48 1427.65L1147.3 1428.01L1147.29 1428.02L1147.46 1343.05L1168.7 1383.88L1148.36 1425.83L1151.08 1420.28ZM1147.22 1297.81V1215.34L1166.24 1255.16L1147.22 1297.81ZM1171.5 1512.62V1512.63L1147.22 1558.47V1469.95L1171.5 1512.62ZM1152.15 1926.77L1151.44 1916.27L1151.77 1920.8L1148.43 1867.59L1149.9 1893.62L1148.07 1861.94L1148.43 1867.59L1147.68 1854.4L1147.67 1854.25L1169.29 1883.15L1185.13 1904.32L1158.07 1949.52L1154.35 1955.7L1151.77 1920.8L1152.15 1926.77ZM1147.22 1819.05V1725.1L1178.16 1770.35L1147.22 1819.05ZM1173.22 1962.52L1198.2 1921.8L1228.66 1962.52H1173.22ZM1197.72 1885L1193.84 1883.16L1166.84 1847.06H1221L1197.72 1885ZM1165.21 1827.4L1191.09 1787.13L1219.57 1827.4H1165.21ZM1190.31 1752L1166.2 1717.91H1212.22L1190.31 1752ZM1164.37 1698.25L1187.16 1659.41L1212.19 1698.25H1164.37ZM1147.22 1688.66V1597.44L1174.65 1641.39L1147.22 1688.66ZM1186.37 1621.91L1165.24 1589.13H1205.59L1186.37 1621.91ZM1163.62 1569.48L1183.64 1532.05L1205.59 1569.48H1163.62ZM1182.85 1491.86L1164.37 1460.36H1199.7L1182.85 1491.86ZM1162.97 1440.71L1180.52 1404.84L1199.7 1440.71H1162.97ZM1179.74 1361.72L1163.62 1331.59H1194.49L1179.74 1361.72ZM1162.41 1311.93L1177.77 1277.78L1194.49 1311.93H1162.41ZM1177.03 1231.54L1162.97 1202.81H1189.95L1177.03 1231.54ZM1161.95 1183.16L1175.41 1150.84L1189.95 1183.16H1161.95ZM1194.47 770.12L1194.54 776.286L1194.55 777.344L1181.49 741.014V741.004L1193.96 706.554L1194.28 746.664L1194.54 776.236L1194.46 769.541L1194.47 770.12ZM1153.34 667.8L1174.24 644.71L1194.4 666.98L1153.34 667.8ZM1153.1 592.07H1195.38L1174.24 615.42L1153.1 592.07ZM1160.99 630.07L1139.85 653.42V606.71L1160.99 630.07ZM1140.37 2187.27L1140.66 2190.26L1137.43 2161.95L1140.37 2187.27ZM1044.51 2318.48L1040.03 2310.02L1077.86 2261.01L1072.75 2310.62L1067.57 2360.9L1044.51 2318.48ZM1106.9 2563.17L1116.81 2580.01L1116.67 2579.79L1116.8 2580.01L1102.45 2557.36L1086.74 2532.56L1086.99 2532.94L1102.45 2557.36L1116.67 2579.79L1106.9 2563.17ZM1103.74 2522.58H1156.3L1139.31 2548.36L1130.02 2562.46L1103.74 2522.58ZM1072.15 2625.5L1076.32 2590.83L1083.55 2529.69L1083.75 2527.96L1086.51 2532.21L1116.44 2580.42L1071.51 2630.8L1072.15 2625.5ZM1052.98 2175.21L1090.96 2125.76L1086.3 2174.62L1086.28 2174.88L1083.59 2203.11L1081.36 2225.86L1052.98 2175.21ZM1091.41 2638.04L1105.82 2621.99L1122.55 2603.35L1130.02 2595.02L1168.63 2638.04L1091.41 2638.04ZM1168.63 2657.69L1130.02 2700.71L1124.18 2694.2L1097.85 2664.87L1091.41 2657.69L1168.63 2657.69ZM1144.17 2581.05L1176.29 2527.96L1182.35 2579.52L1182.38 2579.74L1182.39 2579.86L1182.51 2580.81L1182.74 2582.72L1183.72 2590.87L1187.86 2625.24L1188.53 2630.8L1144.17 2581.05ZM1103.74 2502.93L1130.02 2463.06L1156.3 2502.93H1103.74ZM1115.42 2387.47H1144.62L1130.02 2420.74L1115.42 2387.47ZM1120.19 653.37L1099.06 630.02L1120.19 606.66V653.37ZM1089.13 770.07L1098.81 796.79H1079.22L1089.13 770.07ZM1080.16 687.67H1098.7L1089.33 712.96L1080.16 687.67ZM1098.45 816.44L1088.59 841.73L1079.22 816.44H1098.45ZM1088.13 897.04L1098.7 925.56H1077.02L1088.13 897.04ZM1098.09 945.22L1091.56 960.89L1087.2 971.35L1077.02 945.22H1098.09ZM1086.6 1023.92L1098.45 1054.34H1073.93L1086.6 1023.92ZM1096.93 1075.55L1091.98 1086.56L1085.32 1101.35L1074.58 1075.55H1096.93ZM1084.63 1150.79L1098.09 1183.11H1070.09L1084.63 1150.79ZM1095.9 1126.44L1112.82 1088.12V1167.38L1112.61 1166.86L1095.9 1126.44ZM1112.63 1036.6L1097.62 997.83L1112.82 960.95V1037.1L1112.63 1036.6ZM1112.14 905.27L1098.91 869.39L1109.69 841.73L1111.42 837.29L1112.82 833.68V907.11L1112.14 905.27ZM1099.91 740.96L1112.68 706.5L1112.82 706.12V777.78L1099.91 740.96ZM1085.8 615.37L1064.66 592.02H1106.94L1085.8 615.37ZM1106.7 667.75L1065.64 666.93L1085.8 644.66L1106.7 667.75ZM1065.8 742.98L1065.62 764.92L1065.86 740.92L1066.09 706.5L1078.55 740.96L1065.49 777.29L1065.8 742.98ZM1097.08 1202.76L1091.05 1215.07L1083.02 1231.49L1070.09 1202.76H1097.08ZM1093.8 1255.11L1112.82 1215.29V1297.76L1112.6 1297.26L1093.8 1255.11ZM1118.08 2444.81L1087.95 2491.13L1086.65 2502.56L1086.16 2506.92L1086.06 2507.79L1085.85 2509.57L1086.65 2502.56L1090.83 2465.35L1091.11 2462.81L1091.38 2460.38L1095.16 2425.94L1093.14 2444.27L1098.28 2397.26L1118.08 2444.81ZM1094.56 2086.3L1094.17 2090.78L1064.88 2040.01L1102.9 1990.35L1094.56 2086.3ZM1053.4 2022.68L1029.1 1982.09H1084.48L1053.4 2022.68ZM1075.32 2097.55H1020.83L1051.41 2057.61L1075.32 2097.55ZM1072.71 2117.2L1041.63 2157.67L1018.04 2117.2H1072.71ZM1062.6 2232.66H1008.81L1014.07 2225.81L1019.92 2218.2L1039.39 2192.84L1062.6 2232.66ZM1059.71 2252.31L1028.67 2292.53L1005.78 2252.31H1059.71ZM1026.19 2327.9L1038.54 2349.58L1048.89 2367.77H995.42L1021.1 2334.5L1026.19 2327.9ZM1045.66 2387.42L1014.48 2427.38L992.17 2387.42H1045.66ZM1011.76 2462.81L1034.14 2502.88H980.5L1011.61 2463.01L1011.76 2462.81ZM1025.87 2444.74L1063.74 2396.2L1065.24 2382.51L1065.42 2380.84L1066.18 2373.92L1065.44 2380.84L1065.26 2382.51L1063.81 2396.11L1063.74 2396.2L1055.73 2469.4L1052.79 2495.97L1025.87 2444.74ZM1053.78 2766.59L1053.8 2766.42L1055 2757.59L1058.53 2731.55L1060.43 2717.54L1060.64 2716L1060.68 2715.64L1060.73 2715.34L1060.75 2715.14L1060.76 2715.06L1060.87 2714.23L1067.77 2660.73L1073.01 2666.58L1072.67 2666.18L1115.43 2713.87L1073.01 2666.58L1114.11 2714.01L1075.84 2670L1113.84 2715.76L1114.86 2714.87L1115.69 2714.15V2714.16L1095.28 2732.29L1053.55 2768.18L1053.78 2766.59ZM1146.21 2715.76L1192.27 2660.73L1199.63 2717.51L1199.21 2714.39L1199.26 2714.87L1198.88 2712L1199.21 2714.56L1199.22 2714.65L1199.3 2715.19L1199.32 2715.35V2715.36L1199.33 2715.4L1199.34 2715.48V2715.55L1199.35 2715.61L1199.36 2715.62L1199.5 2716.67L1201.24 2729.53L1204.61 2754.44L1203.35 2745.06L1206.25 2766.44L1206.27 2766.59L1206.49 2768.18L1146.21 2715.76ZM1173.39 2502.57V2502.56L1172.1 2491.13L1141.96 2444.81L1161.76 2397.26L1165.95 2435.59L1173.39 2502.56L1209.27 2513.6L1208.61 2507.79L1209.28 2513.61H1209.26L1173.39 2502.57ZM1207.25 2495.97L1205.4 2479.25V2479.24L1205.39 2479.23L1204.61 2472.2V2472.15L1204.26 2468.95L1203.86 2465.32L1196.29 2396.19L1196.23 2396.11L1194.78 2382.51L1194.6 2380.84L1194.35 2378.47H1194.34L1193.73 2372.68L1194.35 2378.47L1194.61 2380.84L1194.79 2382.51L1196.29 2396.19L1234.17 2444.74L1207.25 2495.97ZM1310.08 2312L1309.76 2309.05L1309.24 2303.74L1310.08 2312ZM1301.67 2529.46L1305.76 2563.11L1305.78 2563.25L1305.79 2563.32L1305.8 2563.38V2563.39L1305.81 2563.49L1306.76 2571.13L1306.77 2571.19L1307.12 2573.98L1308.61 2585.78L1308.29 2583.37L1309.31 2591.49L1308.1 2581.85L1308.1 2581.88V2581.83L1307.89 2580.23L1307.79 2579.4L1307.89 2580.2L1307.79 2579.45L1308.06 2581.59L1309.75 2594.97L1309.86 2595.85L1309.53 2593.19L1314.13 2628.89L1276.04 2581L1301.67 2529.46ZM1286.41 2394.53L1286.63 2396.58L1286.71 2397.26L1286.78 2397.92L1287.02 2400.15L1287.63 2405.84L1287.85 2407.83L1288.21 2411.18L1288.96 2418.12L1289.03 2418.79L1289.21 2420.43L1289.29 2421.16L1290.82 2434.97L1290.34 2430.74L1293.12 2455.63L1291.02 2436.76L1291.88 2444.41L1292.03 2445.74L1293.13 2455.63L1294.04 2463.86L1292.03 2445.74L1292.47 2449.62L1294.04 2463.86L1294.36 2466.7L1294.8 2470.54L1296.47 2485.12L1296.73 2487.41L1297.18 2491.37L1297.48 2493.91L1297.47 2493.9L1259.58 2444.74L1285.42 2396.32L1286.41 2394.53ZM1273.02 2262L1273.72 2269.22L1275.01 2282.59L1282.68 2359L1277.85 2311.08L1282.68 2359L1280.53 2338L1280.92 2341.86L1282.68 2359L1263.92 2334.56L1245.16 2309.97L1272.78 2259.51L1273.02 2262ZM1259.45 2126.3L1260.56 2124.4L1260.72 2126.3L1260.83 2127.6L1260.93 2128.74L1264.96 2174.3L1265.23 2177.35L1265.33 2178.45L1269.45 2224.11L1268.77 2216.7L1268.9 2218.2L1269.45 2224.11L1269.45 2224.12L1231.97 2175.15L1259.45 2126.31L1259.45 2126.3ZM1249.66 1990.35L1251.5 2013.91L1251.51 2014.04L1251.58 2014.97L1251.97 2019.73L1251.98 2019.81L1252.06 2020.92L1256.03 2070.46L1253.83 2042.78L1255.11 2058.6L1257.58 2089.22L1220.09 2040.01L1249.58 1989.23L1249.66 1990.35ZM1239.74 1854.38L1240.91 1871.16L1241.09 1873.68L1241.13 1874.28L1241.19 1875.09L1242 1886.76L1243.22 1903.82L1241.23 1875.63L1245.58 1936.07L1243.28 1903.95L1246.9 1954.02L1209.67 1904.24L1239.72 1854.05L1239.74 1854.38ZM1231.23 1724.59L1232.96 1751.88L1237.29 1818.34L1203.3 1770.27L1231.23 1724.59ZM1223.73 1596.98L1226.3 1641.31L1226.32 1641.75L1223.73 1596.98L1225.14 1621.8L1229 1687.98L1198.92 1641.32L1223.73 1596.98ZM1217.04 1469.55L1217.06 1469.99L1217.14 1471.47L1217.16 1471.96L1219.29 1513.14L1221.59 1557.83L1195.03 1512.55V1512.54L1217.04 1469.55ZM1212.77 1379.38L1212.98 1384L1215 1427.57L1191.59 1383.8L1210.83 1342.84L1212.77 1379.38ZM1188.58 1255.08L1205.96 1215.04L1206.11 1218.84L1205.98 1215.41L1207.75 1260.28L1209.21 1297.23L1188.58 1255.08ZM1208.63 606.63V653.34L1187.49 629.99L1208.63 606.63ZM1056.34 394.9V394.83L1056.42 393.17L1056.88 386.96L1057.04 385.36L1058.32 377.471L1060.14 370.14L1063.13 361.32V361.31L1066.19 354.31L1066.21 354.26L1070.18 346.92L1074.82 339.92L1081.75 331.3L1086.95 325.94L1093.29 320.43L1099.89 315.6L1108.27 310.66L1115.54 307.14L1123.48 304.1L1130.02 302.11L1136.57 304.1L1136.64 304.12L1144.5 307.14L1141.85 306.07L1144.33 307.06L1144.5 307.14L1144.53 307.15L1152.65 311.07L1152.7 311.1L1160.15 315.6L1166.75 320.431L1173.09 325.94L1178.29 331.3L1185.22 339.92L1189.86 346.92L1193.41 353.48L1196.93 361.38L1199.16 367.8L1200.3 371.75L1201.12 375.061L1202.85 384.601L1203.25 388.04L1203.63 393.24L1203.7 394.8L1203.72 400.371H1056.32L1056.34 394.9ZM1051.41 606.63L1072.55 629.99L1051.41 653.34V606.63ZM1053.93 1218.9L1054.03 1216.28L1054.06 1215.41L1054.07 1215.26L1054.08 1215.04L1071.46 1255.08L1050.83 1297.23L1053.93 1218.9ZM1046.11 1404.76L1049.21 1342.84L1068.45 1383.8L1045.04 1427.57L1046.11 1404.76ZM1112.8 1455.36L1112.78 1445.54L1097.08 1440.63H1060.34L1079.53 1404.76L1097.08 1440.63L1112.78 1445.53L1112.75 1427.94L1111.69 1425.78L1091.35 1383.8L1112.59 1342.97L1112.82 1326.59V1558.39L1112.51 1557.8L1088.55 1512.55L1088.54 1512.54L1112.82 1469.87L1112.8 1455.37L1044.11 1447.01L1112.8 1455.36ZM1039.82 1531.97L1042.81 1473.39L1042.92 1471.21L1042.99 1469.87L1043.01 1469.54L1065.01 1512.55L1038.45 1557.83L1039.82 1531.97ZM1033.8 1641.32L1033.78 1641.56L1036.29 1597.36L1036.31 1596.98L1061.12 1641.32L1031.04 1687.98L1033.8 1641.32ZM1022.33 1096.93L1021.73 1119.29L1021.64 1122.06L1022.33 1096.93ZM1021.54 1836.18L1028.73 1725.87L1028.81 1724.59L1056.75 1770.27L1022.76 1818.34L1021.82 1832.24L1021.55 1836.18L1021.15 1842.06L1021.54 1836.18ZM1014.23 1939.38L1014.47 1936.03L1014.59 1934.35L1016.82 1903.82L1015.5 1921.77L1014.62 1933.97L1014.85 1930.68L1020.33 1854.05L1020.4 1854.17L1050.37 1904.24L1013.14 1954.02L1014.23 1939.38ZM1104.6 1967.34L1104.75 1967.35H1012.14L1104.6 1967.34ZM1009.72 1443.13L1009.43 1450.32L1009.38 1451.55L1008.71 1466.57L1009.72 1443.13ZM1004.93 2058.6L1010.47 1989.23L1039.95 2040.01L1040.47 2039.34L1002.46 2089.22L1006.28 2041.98L1004.93 2058.6ZM991.14 2218.2L994.15 2184.64L994.9 2176.28L992.9 2198.99L997.03 2152.71L997.04 2152.58L997.05 2152.46L999.49 2124.4L1028.07 2175.15L990.59 2224.12L991.14 2218.2ZM978.77 2345.4L979.88 2334.5L979.87 2334.51L980.53 2327.95L980.54 2327.9L983.19 2301.15L984.25 2290.6L984.07 2292.53L984.26 2290.56L984.25 2290.57L985.24 2280.5L985.03 2282.58L985.23 2280.49L985.24 2280.5L986.98 2262.39L987.26 2259.51L1014.89 2309.98L977.36 2359L978.77 2345.4ZM962.94 2490.63L963.16 2488.74L966.13 2462.81L966.12 2462.83L963.5 2485.72L963.92 2481.99L967.7 2448.52L973.26 2397.93L973.42 2396.47L973.63 2394.53L974.62 2396.32L1000.47 2444.73V2444.74L962.57 2493.91L962.94 2490.63ZM962.54 2494.1L960.94 2507.79L960.71 2509.76L960.47 2511.72L962.54 2494.1ZM960.93 2197.13L952.16 2289.73L951.34 2298.01L960.93 2197.13ZM950.8 2303.73L950.49 2306.89L950.34 2308.27L950.8 2303.73ZM929.78 2745.34L933.15 2721.95L932.15 2728.79L933.85 2716.87V2716.85L936.1 2701.1L938.84 2681.42L938.9 2680.94L954.1 2564.53V2564.5L954.18 2563.88L954.29 2563.02L955.96 2549.3L956.01 2548.94L957.54 2536.32L958.37 2529.46L984.83 2579.96L945.92 2628.89L942.76 2652.73L939.39 2677.43L939.68 2675.37L939.75 2674.85L940.3 2670.87L940.52 2669.25L941.19 2664.33L967.75 2714.15L967.47 2714.5L927.04 2763.91L929.78 2745.34ZM913.61 2622.16L913.47 2623.26L913.3 2624.47L913.61 2622.16ZM911.29 2863.95L911.56 2862.34L911.78 2861.01L913.66 2849.59L913.69 2849.38L918.45 2819.81L917.6 2825.02L917.84 2823.49L917.92 2822.97L920.99 2803.53L921.64 2799.41L921.65 2799.34L947.44 2849.38L905.38 2898.93L911.29 2863.95ZM923.28 2908.21L957.5 2867.9L978.57 2908.21H923.28ZM1005.27 2858.03L1005.6 2856.05L1005.71 2855.41L1005.27 2858.03ZM1010.1 2827.51L1008.39 2838.85L1009.66 2830.34L1008.27 2839.19L1010.75 2822.98L1009.66 2830.34L1010.1 2827.51ZM1010.84 2822.42L1011.48 2818.06L1006.44 2850.75L1006.63 2849.65L1005.72 2855.45L1006.44 2850.75L1003.36 2869.03L1005.6 2856.05L1005.26 2858.04L998.46 2898.12L1003.36 2869.03L997.64 2902.26L997.7 2902.39L996.22 2910.49L997.64 2902.26L972.19 2850.59V2850.58L1013.97 2801.37L1011.48 2818.06L1013.7 2803.72L1010.84 2822.42ZM1014.49 2798.37L1014.42 2798.36L994.34 2794.13L961.4 2832.94L941.11 2794.13H994.34L1014.42 2798.35L1015.98 2787.85L923.42 2787.84L921.94 2797.43L924.91 2778.02L923.42 2787.84L1015.98 2787.84V2787.85L1016 2787.85L1014.49 2798.37ZM1017.41 2778.02L944.91 2773.1L978.17 2732.46L1000.22 2773.1H944.91L1017.41 2778.01V2778.02ZM1017.43 2777.88L1018.96 2766.41L992.52 2714.92L1032.28 2666.33L1034.1 2652.73L1032.35 2666.25L1032.28 2666.33L1018.96 2766.41L1019.05 2766.59L1017.43 2777.88ZM1031.51 2908.83L1032.82 2901.57L1032.92 2901.03L1035.16 2887.88L1035.26 2887.31L1038.78 2866.6L1038.83 2866.33L1038.85 2866.22L1038.91 2865.86L1039.05 2865L1039.42 2862.72L1039.48 2862.34L1039.58 2861.7L1039.79 2860.44L1039.89 2859.81L1040.77 2854.23L1041.05 2852.52L1040.21 2857.72L1040.22 2857.65L1040.23 2857.58L1040.44 2856.2L1040.23 2857.58V2857.54L1040.44 2856.2L1040.88 2853.3L1039.13 2864.31L1038.07 2870.55L1043.58 2836.33L1041.76 2848.06L1041.77 2847.99L1041.59 2849.11L1043.4 2837.52L1043.59 2836.26L1043.6 2836.19L1043.64 2835.91L1043.8 2834.88L1044.04 2833.35L1044.05 2833.32V2833.3L1044.06 2833.24L1044.15 2832.66L1044.8 2828.35L1044.48 2830.42L1047.32 2811.32L1046.46 2817.35L1050.43 2794.99L1113.51 2849.38L1032.3 2904.51L1031.51 2908.83ZM1040.15 2858.12L1040.39 2856.65L1040.15 2858.13L1040.15 2858.12ZM1040.04 2858.84L1039.99 2859.15L1039.99 2859.13L1040.04 2858.84ZM1040.16 2858.01L1040.2 2857.76L1040.21 2857.72L1040.16 2858.01ZM1040.16 2858.03V2858.01L1040.18 2857.9L1040.2 2857.77L1040.2 2857.76L1040.16 2858.03ZM1061.96 2908.21L1117.39 2870.85L1130.02 2862.34L1198.08 2908.21H1061.96ZM1228.13 2906.61L1224.39 2884.92L1226.75 2898.93L1228.11 2906.5L1227.74 2904.51L1146.53 2849.38L1204.51 2799.38L1209.61 2794.99L1213.58 2817.35L1212.73 2811.32L1216.33 2835.38L1216.35 2835.54L1216.37 2835.69L1216.38 2835.73L1219.07 2852.69L1228.14 2906.68L1228.13 2906.61ZM1208.37 2781.45L1243.49 2784.15L1243.51 2784.16L1208.37 2781.45ZM1260.91 2894.1L1260.54 2891.93L1253.51 2850.26L1246 2801.29L1245.98 2801.26L1245.56 2798.4L1246 2801.29L1287.85 2850.58L1298.65 2832.94L1265.71 2794.13H1318.93L1298.65 2832.94L1287.86 2850.58L1312.51 2849.28L1287.85 2850.59L1262.34 2902.38L1260.91 2894.1ZM1281.47 2908.21L1302.55 2867.9L1336.77 2908.21H1281.47ZM1321.51 2859.87L1319.56 2857.58L1312.6 2849.38L1338.39 2799.33L1338.23 2798.26L1338.1 2797.43L1338.09 2797.39L1338.03 2797.02L1336.62 2787.84L1335.13 2778.02H1242.63L1242.78 2778.01H1242.63L1315.14 2773.1H1259.82L1281.88 2732.46L1315.14 2773.1L1242.78 2778.01L1335.13 2778.02L1338.03 2797.02L1330.26 2745.34L1333.01 2763.91L1301.23 2725.08L1294.27 2716.57L1293.35 2715.44L1293.04 2715.07L1292.91 2714.92V2714.91L1318.85 2664.34L1319.1 2666.16L1319.76 2670.95L1318.85 2664.34L1338.4 2799.32L1339.65 2807.3L1339.75 2807.9L1344.42 2837.53L1344.43 2837.52L1345.95 2846.9L1345.97 2847.03L1345.99 2847.11V2847.15L1346 2847.16V2847.17L1346.01 2847.24L1346.35 2849.37L1354.66 2898.94L1321.51 2859.88L1321.51 2859.87ZM1374.52 2810.35L1374.29 2808.88L1374.68 2811.31L1374.52 2810.35ZM1375.12 2813.92L1375.21 2814.4L1375.24 2814.62L1375.12 2813.92ZM1350.78 3166.91L1349.4 3166.08L1388.29 3189.72H1273.62L1284.13 3181.17L1284.33 3181.01L1288.74 3177.42L1301.61 3166.96L1322.67 3149.82L1350.78 3166.91ZM1417.41 3390.54L1432.78 3404.1L1436.07 3407L1440.39 3410.81H1320.78L1326.03 3403.03L1331.78 3394.5L1339.39 3383.21L1365.39 3344.64H1365.4L1417.41 3390.54ZM1358.18 3582.77L1407.24 3516.74L1490.19 3582.77H1358.18ZM1497.89 3602.43L1496.7 3603.91L1450.28 3662.02L1368.74 3602.43H1497.89ZM1418.71 3468.34L1413.3 3475.62L1404.35 3487.66L1400.97 3486.62H1400.96L1330.43 3430.47H1446.84L1434.57 3446.99L1418.71 3468.33V3468.34ZM1361.41 3314.73L1303.78 3264.08L1298.75 3259.64L1399.63 3258.71L1361.41 3314.73ZM1299.65 3407L1294.73 3379.57L1291.32 3360.58L1290.25 3354.66L1289.83 3352.32L1283.4 3316.48L1291.32 3360.58L1283.17 3315.16L1283.16 3315.09L1274.46 3264.44L1274.51 3264.48L1350.3 3331.88L1299.65 3407ZM1305.24 3435.54L1346.36 3468.27L1381.48 3496.23L1391.72 3504.38L1371.19 3532.13L1336.65 3577.93L1323.82 3523.07L1317.28 3492.48L1317.33 3492.68L1305.24 3435.54ZM1335.79 3579.97L1335.94 3579.77L1339.03 3594.24L1335.79 3579.97ZM1378.02 3753.61V3753.6L1377.79 3752.75L1378.03 3753.61H1378.02ZM1377.81 3752.73L1358.98 3676.27L1351.33 3645.19L1341.99 3607.21L1436.79 3677.39L1377.81 3752.73ZM1402.95 3752.75L1453.88 3689L1543.81 3754.73H1401.36L1402.95 3752.75ZM1546.6 3782.46L1546.21 3782.94L1546.24 3782.89L1545.39 3783.94L1502.94 3835.89L1412.78 3774.39H1553.19L1546.6 3782.46ZM1535.18 3645.81L1541.64 3666.12L1544.07 3673.64H1544.09L1542.88 3669.91L1543.92 3673.11L1535.41 3646.53L1551.24 3695.75L1557.05 3713.57L1560.84 3725.07L1570.59 3754.46L1568.56 3748.49L1472.81 3678.5L1467.96 3674.96L1521.86 3603.92L1528.54 3625.11L1529.7 3628.73L1540.33 3662.03L1540.33 3662L1541.47 3665.59L1529.93 3629.43L1534.98 3645.21L1535.18 3645.81ZM1528.58 3625.05L1522.87 3607L1517.63 3590.28L1528.58 3625.05ZM1478.15 3460.68L1478.48 3461.77L1485.05 3483.85L1486.46 3488.57L1483.02 3476.96L1484.4 3481.59L1485.11 3483.99L1488.81 3496.43L1490.04 3500.51L1490.17 3500.96L1491.13 3504.12V3504.13L1491.2 3504.36V3504.37L1491.21 3504.39L1492.49 3508.62L1493.85 3513.12L1494.01 3513.65L1494.94 3516.75L1494.23 3514.36L1513.11 3575.9L1418.97 3500.96L1424.54 3493.45L1443.2 3468.34L1443.21 3468.32L1469.84 3432.48L1472.31 3440.91L1467.91 3425.85L1478.15 3460.68ZM1440.03 3328.22L1461.28 3403.04L1439.52 3383.85L1431.8 3377.03L1390.26 3340.38L1381.67 3332.81L1381.23 3332.42L1381.03 3332.24L1376.47 3328.22L1421.62 3261.26L1422.35 3263.93L1423.48 3268.04L1423.57 3268.36L1430.5 3293.63L1436.38 3315.04L1439.52 3326.38L1440.03 3328.22ZM1434.53 3308.22L1432.65 3301.39L1422.67 3265L1420.11 3255.47L1421.76 3261.7L1420.89 3258.52L1420.11 3255.47L1434.53 3308.22ZM1399.9 3179.54L1399.95 3179.58L1334.81 3139.96L1380.48 3102.82L1399.9 3179.54ZM1364.66 3096.69L1321.44 3131.84L1261.09 3095.14L1364.66 3096.69ZM1309.27 3141.74L1306.13 3144.29L1260.6 3181.32L1261.26 3185.07L1260.59 3181.33L1260.6 3181.32L1260.32 3179.75L1260.29 3179.57L1248.1 3104.49L1309.27 3141.74ZM833.823 3783.57L757.103 3835.9L706.853 3774.4H847.273L833.823 3783.57ZM879.843 3761.67L858.683 3754.74H716.233L718.953 3752.76L806.163 3689.01L858.683 3754.74L879.843 3761.66V3761.67ZM961.293 3259.65L898.633 3314.74L860.413 3258.72L961.293 3259.65ZM871.753 3189.73L937.373 3149.83L986.423 3189.73H871.753ZM924.843 3389.43L925.533 3390.46L925.573 3390.51L925.583 3390.53L925.613 3390.57L925.683 3390.68L926.453 3391.82L930.293 3397.51L939.263 3410.82H819.653L894.653 3344.65L924.843 3389.43ZM929.623 3430.48L857.393 3487.15L813.203 3430.48H929.623ZM901.863 3582.78H769.853L852.803 3516.75L901.863 3582.78ZM891.303 3602.44L809.773 3662.03L762.153 3602.44H891.303ZM905.973 3656.34L899.263 3683.64L882.053 3753.52L882.023 3753.62L880.133 3760.6L882.233 3752.74L878.833 3748.48L823.253 3677.4L918.063 3607.22L905.973 3656.34ZM936.613 3521.43L923.393 3577.94L888.853 3532.14L868.323 3504.39L887.783 3488.9L890.333 3486.87L890.963 3486.37L893.743 3484.16L894.273 3483.74L897.813 3480.92L913.683 3468.28L954.573 3435.74L936.613 3521.43ZM987.453 3255.49H987.443L986.733 3259.89L986.063 3264.02L986.043 3264.04L985.893 3264.17L972.423 3339.98L971.913 3342.83L963.163 3391.57L960.393 3407.01L949.873 3391.4L944.353 3383.22L914.883 3339.51L914.953 3339.6L909.753 3331.89L985.893 3264.17L986.653 3259.89L987.433 3255.49H987.443L988.063 3251.59L989.003 3245.82L987.453 3255.49ZM996.313 3198.82H996.303L997.343 3193.19L996.313 3198.82ZM1049.74 3189.73L1130.02 3150.53L1210.3 3189.73H1049.74ZM1202.22 3108.95L1212.97 3102.71L1225.65 3180.83L1224.56 3174.05L1226.4 3185.38L1225.65 3180.83L1205.66 3171.06L1196.58 3166.63L1193.25 3165.01L1185.66 3161.3L1162.19 3149.83L1145.72 3141.74L1148.78 3139.96L1189.37 3116.41L1191.25 3115.32L1199.67 3110.43L1202.22 3108.95ZM1197.03 3094.92L1130.02 3133.81L1063.02 3094.92H1197.03ZM1035.66 3172.96L1037.69 3160.48L1039.42 3149.83L1040.13 3145.44L1040.48 3143.31L1040.74 3141.73L1041.17 3139.09L1041.02 3139.96L1041.97 3134.12L1042.02 3133.81L1042.09 3133.37V3133.42L1042.23 3132.51L1047.07 3102.71L1114.32 3141.74L1097.63 3149.94L1095.87 3150.8L1096.4 3150.55L1090.56 3153.4L1075.43 3160.79L1070.98 3162.96L1114.32 3141.74L1034.39 3180.83L1033.23 3187.92L1035.66 3172.96ZM1031.46 3198.82L999.463 3181.34L1031.46 3198.81V3198.82ZM999.463 3181.33L950.773 3141.74L1011.94 3104.49L999.463 3181.33ZM998.953 3095.14L938.603 3131.84L895.383 3096.69L998.953 3095.14ZM863.633 3165.74L879.563 3102.82L925.233 3139.96L860.143 3179.54L863.633 3165.74ZM839.153 3258.52L838.769 3259.94L839.896 3255.6L839.933 3255.47L839.153 3258.52ZM818.953 3331.99L818.993 3331.87L819.273 3330.87L819.573 3329.81L820.013 3328.22L821.313 3323.5L824.513 3311.91L824.763 3311L825.003 3310.13L839.835 3255.83L836.959 3266.55L838.696 3260.22L838.718 3260.13L838.792 3259.88L838.422 3261.26L837.717 3263.84L838.082 3262.49L837.112 3266.01L832.402 3283.17L825.003 3310.13L828.052 3299.07L830.532 3290.07L832.322 3283.58L837.472 3264.73L837.646 3264.11L834.868 3274.34L838.423 3261.26L883.572 3328.22L879.022 3332.24L872.932 3337.61L798.772 3403.04L804.022 3384.79L792.132 3425.85L792.632 3424.04L818.953 3331.99ZM749.243 3568.48L767.743 3507.99V3507.97L768.853 3504.36L768.883 3504.26L769.873 3500.96L772.343 3492.74L768.853 3504.24L776.203 3479.7L787.733 3440.91L789.063 3436.38L790.213 3432.48L792.483 3435.55L811.053 3460.54L831.753 3488.4L841.083 3500.96L746.933 3575.9L749.243 3568.48ZM700.443 3721.33L698.413 3727.53L703.003 3713.57L709.573 3693.37L712.603 3684.08L712.923 3683.09L715.103 3676.27L713.383 3681.54L731.503 3625.11L742.413 3590.28L738.183 3603.92L736.411 3609.54L736.791 3608.34L738.184 3603.92L792.083 3674.96L787.233 3678.5L691.483 3748.49L700.443 3721.33Z" fill="#7C4848"/>
<path d="M1619.5 3898.1L1621 3902.5L1614.1 3882.5L1619.6 3898.4L1619.5 3898.1Z" fill="#7C4848"/>
<path d="M1002.3 3368.2L1002.4 3367.3L1005.2 3352.6L1002.3 3368.2Z" fill="#7C4848"/>
<path d="M1334.8 3719.8L1342.2 3748.5L1337.1 3728.6L1334.8 3719.8Z" fill="#7C4848"/>
<path d="M1266.3 3412.3L1264.4 3403.1L1266.5 3413.3L1271.1 3436.3L1269.4 3427.6L1266.3 3412.5V3412.3Z" fill="#7C4848"/>
<path d="M1262.9 3394.9L1266.3 3412.3L1264.1 3401.2L1262.9 3394.9Z" fill="#7C4848"/>
<path d="M971.31 3521.8L971.25 3522.1L970.97 3523.4L971.31 3521.9V3521.8Z" fill="#7C4848"/>
<path d="M873.03 3786.5L874.46 3781.5L871.4 3791.6L857.87 3836L856.4 3840.8L854.48 3847.1L854.09 3848.4L853.76 3849.5L851.1 3858.2L847.56 3869.8L851.08 3858.2L847.57 3869.8H847.97L848.83 3866.6L847.97 3869.8H848.85L853.25 3855.2L862.74 3822.4L873.35 3785.7L874.42 3781.8L873.03 3786.5Z" fill="#7C4848"/>
<path d="M1331.7 3707.4V3707.2L1330.5 3702.6L1332.5 3710.5L1331.7 3707.4Z" fill="#7C4848"/>
<path d="M874.48 3781.5L874.61 3781.1L874.54 3781.3L874.48 3781.5Z" fill="#7C4848"/>
<path d="M872.75 3788L873.46 3785.4L873.35 3785.7L872.75 3788Z" fill="#7C4848"/>
<path d="M1008.9 3332.3L1008.6 3333.6L1008 3336.8L1008.9 3332.3Z" fill="#7C4848"/>
<path d="M995.76 3402.4L997.21 3394.9H997.18L996.3 3399.5L997.15 3395L993.94 3411.3L995.76 3402.4Z" fill="#7C4848"/>
<path d="M991.38 3424L993.57 3413.2L993.94 3411.3L991.97 3421.1L991.38 3424Z" fill="#7C4848"/>
<path d="M1397.8 3937.8L1400.7 3946.1L1394.1 3926.8L1397.8 3937.8Z" fill="#7C4848"/>
<path d="M874.73 3899.7L876.04 3895.7L876.06 3895.6L877.79 3890.1L876.711 3893.5L874.73 3899.7Z" fill="#7C4848"/>
</g>
<defs>
<clipPath id="clip0_22_2">
<rect width="2260" height="5000" fill="white"/>
</clipPath>
</defs>
</svg>
